<?xml version="1.0" encoding="UTF-8" standalone="no"?>
<svg width="59px" height="62px" viewBox="0 0 59 62" version="1.1" xmlns="http://www.w3.org/2000/svg" xmlns:xlink="http://www.w3.org/1999/xlink">
    <!-- Generator: Sketch 41 (35326) - http://www.bohemiancoding.com/sketch -->
    <title>noun_191937_cc</title>
    <desc>Created with Sketch.</desc>
    <defs>
        <path d="M56.1230769,15.3461538 C56.2984615,15.6092308 56.4738462,15.96 56.4738462,16.3107692 L56.4738462,57.4384615 C56.4738462,58.3153846 55.7723077,59.0169231 54.8953846,59.0169231 L1.57846154,59.0169231 C0.701538462,59.0169231 0,58.3153846 0,57.4384615 L0,16.3107692 C0,15.96 0.0876923077,15.6092308 0.350769231,15.3461538 L11.9261538,0.613846154 C12.1892308,0.263076923 12.7153846,0 13.1538462,0 L43.32,0 C43.8461538,0 44.2846154,0.263076923 44.5476923,0.613846154 L56.1230769,15.3461538 Z" id="path-1"></path>
        <mask id="mask-2" maskContentUnits="userSpaceOnUse" maskUnits="objectBoundingBox" x="-1" y="-1" width="58.4738462" height="61.0169231">
            <rect x="-1" y="-1" width="58.4738462" height="61.0169231" fill="white"></rect>
            <use xlink:href="#path-1" fill="black"></use>
        </mask>
    </defs>
    <g id="Page-1" stroke="none" stroke-width="1" fill="none" fill-rule="evenodd">
        <g id="Club99love-how-it-works" transform="translate(-1078.000000, -1403.000000)">
            <g id="noun_191937_cc" transform="translate(1079.000000, 1404.000000)">
                <g id="Group">
                    <g id="Path">
                        <use fill="#C12036" fill-rule="evenodd" xlink:href="#path-1"></use>
                        <use stroke="#C12036" mask="url(#mask-2)" stroke-width="2" xlink:href="#path-1"></use>
                    </g>
                    <polygon id="Path" fill="#FFFFFF" points="53.3169231 17.9769231 3.15692308 17.9769231 3.15692308 55.86 53.3169231 55.86 53.3169231 17.9769231"></polygon>
                    <polygon id="Path" fill="#FFFFFF" points="4.82307692 14.7323077 26.6584615 14.7323077 26.6584615 3.24461538 13.9430769 3.24461538"></polygon>
                    <polygon id="Path" fill="#FFFFFF" points="29.8153846 14.7323077 51.6507692 14.7323077 42.6184615 3.24461538 29.9030769 3.24461538 29.9030769 14.7323077"></polygon>
                    <path d="M15.3461538,34.2 C14.2938462,33.1476923 13.68,31.6569231 13.68,30.1661538 C13.68,28.6753846 14.2938462,27.1846154 15.3461538,26.1323077 C17.5384615,23.94 21.1338462,23.94 23.4138462,26.1323077 C24.4661538,27.1846154 25.08,28.6753846 25.08,30.1661538 C25.08,31.6569231 24.4661538,33.1476923 23.4138462,34.2 C22.3615385,35.2523077 20.8707692,35.8661538 19.38,35.8661538 C17.8892308,35.8661538 16.3984615,35.2523077 15.3461538,34.2 Z" id="Path" fill="#9B9B9B"></path>
                    <path d="M16.8369231,30.1661538 C16.8369231,30.8676923 17.1,31.4815385 17.5384615,31.92 L17.5384615,31.92 C17.9769231,32.3584615 18.6784615,32.6215385 19.2923077,32.6215385 C19.9061538,32.6215385 20.6076923,32.3584615 21.0461538,31.92 C21.4846154,31.4815385 21.7476923,30.78 21.7476923,30.1661538 C21.7476923,29.4646154 21.4846154,28.8507692 21.0461538,28.4123077 C20.52,27.8861538 19.9061538,27.7107692 19.2923077,27.7107692 C18.6784615,27.7107692 17.9769231,27.9738462 17.5384615,28.4123077 C17.1,28.9384615 16.8369231,29.5523077 16.8369231,30.1661538 Z" id="Path" fill="#FFFFFF"></path>
                    <path d="M37.9707692,39.0230769 C39.0230769,40.0753846 39.6369231,41.5661538 39.6369231,43.0569231 C39.6369231,44.5476923 39.0230769,46.0384615 37.9707692,47.0907692 C36.8307692,48.2307692 35.4276923,48.7569231 33.9369231,48.7569231 C32.4461538,48.7569231 31.0430769,48.2307692 29.9030769,47.0907692 L29.9030769,47.0907692 C28.8507692,46.0384615 28.2369231,44.5476923 28.2369231,43.0569231 C28.2369231,41.5661538 28.8507692,40.0753846 29.9030769,39.0230769 C30.9553846,37.9707692 32.4461538,37.3569231 33.9369231,37.3569231 C35.4276923,37.3569231 36.9184615,37.9707692 37.9707692,39.0230769 Z" id="Path" fill="#9B9B9B"></path>
                    <path d="M36.48,43.0569231 C36.48,42.3553846 36.2169231,41.7415385 35.7784615,41.3030769 C35.34,40.8646154 34.6384615,40.6015385 34.0246154,40.6015385 C33.3230769,40.6015385 32.7092308,40.8646154 32.2707692,41.3030769 C31.8323077,41.7415385 31.5692308,42.4430769 31.5692308,43.0569231 C31.5692308,43.6707692 31.8323077,44.3723077 32.2707692,44.8107692 C33.2353846,45.7753846 34.8138462,45.7753846 35.7784615,44.8107692 C36.2169231,44.3723077 36.48,43.6707692 36.48,43.0569231 Z" id="Path" fill="#FFFFFF"></path>
                    <path d="M15.7846154,45.1615385 L35.2523077,25.6938462 C35.8661538,25.08 36.9184615,25.08 37.5323077,25.6938462 C38.1461538,26.3076923 38.1461538,27.36 37.5323077,27.9738462 L18.0646154,47.4415385 C17.7138462,47.7923077 17.3630769,47.88 16.9246154,47.88 C16.4861538,47.88 16.1353846,47.7046154 15.7846154,47.4415385 C15.1707692,46.8276923 15.1707692,45.8630769 15.7846154,45.1615385 Z" id="Path" fill="#9B9B9B"></path>
                </g>
            </g>
        </g>
    </g>
</svg>