<?xml version="1.0" encoding="UTF-8" standalone="no"?>
<svg width="144px" height="144px" viewBox="0 0 144 144" version="1.1" xmlns="http://www.w3.org/2000/svg" xmlns:xlink="http://www.w3.org/1999/xlink">
    <!-- Generator: Sketch 41 (35326) - http://www.bohemiancoding.com/sketch -->
    <title>noun_421430_cc</title>
    <desc>Created with Sketch.</desc>
    <defs>
        <polygon id="path-1" points="59.956044 133.846154 37.6483516 133.846154 37.6483516 79.6703297 59.956044 79.6703297"></polygon>
        <mask id="mask-2" maskContentUnits="userSpaceOnUse" maskUnits="objectBoundingBox" x="-10" y="-10" width="42.3076923" height="74.1758242">
            <rect x="27.6483516" y="69.6703297" width="42.3076923" height="74.1758242" fill="white"></rect>
            <use xlink:href="#path-1" fill="black"></use>
        </mask>
    </defs>
    <g id="Page-1" stroke="none" stroke-width="1" fill="none" fill-rule="evenodd">
        <g id="Club99love-how-it-works" transform="translate(-288.000000, -1157.000000)">
            <g id="noun_421430_cc" transform="translate(287.000000, 1157.000000)">
                <g id="Group">
                    <path d="M139.626374,133.846154 L134.294835,133.846154 L134.294835,76.9599451 L136.151154,78.9246154 C137.091264,79.9204945 138.358022,80.4224176 139.627967,80.4224176 C140.803901,80.4224176 141.984615,79.9906044 142.908791,79.1174176 C144.828846,77.3041209 144.91489,74.2782418 143.101593,72.3597802 L132.989835,61.6536813 L132.989835,61.6536813 L76.1785165,1.4978022 C74.3731868,-0.414285714 71.0334066,-0.414285714 69.2296703,1.4978022 L12.4167582,61.6536813 L12.4167582,61.6536813 L2.305,72.3597802 C0.491703297,74.2798352 0.577747253,77.3057143 2.4978022,79.1174176 C4.41626374,80.9307143 7.44373626,80.8414835 9.25384615,78.9246154 L11.1101648,76.9599451 L11.1101648,133.846154 L5.78021978,133.846154 C3.13994505,133.846154 1,135.986099 1,138.626374 C1,141.266648 3.13994505,143.406593 5.78021978,143.406593 L15.891978,143.406593 L129.516209,143.406593 L139.626374,143.406593 C142.266648,143.406593 144.406593,141.266648 144.406593,138.626374 C144.406593,135.986099 142.266648,133.846154 139.626374,133.846154 Z" id="Path" fill="#C12036"></path>
                    <path d="M69.5164835,133.846154 L69.5164835,74.8901099 C69.5164835,72.2498352 67.3765385,70.1098901 64.7362637,70.1098901 L32.8681319,70.1098901 C30.2278571,70.1098901 28.0879121,72.2498352 28.0879121,74.8901099 L28.0879121,133.846154 L20.6721978,133.846154 L20.6721978,66.837033 L47.9895604,37.9103297 C48.5249451,38.1174725 49.1017582,38.2417582 49.7072527,38.2417582 L95.6977473,38.2417582 C96.3048352,38.2417582 96.8800549,38.1174725 97.4154396,37.9103297 L124.734396,66.837033 L124.734396,133.846154 L69.5164835,133.846154 Z" id="Path" fill="#FFFFFF"></path>
                    <g id="Path">
                        <use fill="#FFFFFF" fill-rule="evenodd" xlink:href="#path-1"></use>
                        <use stroke="#9B9B9B" mask="url(#mask-2)" stroke-width="20" stroke-linecap="round" xlink:href="#path-1"></use>
                    </g>
                    <polygon id="Path" fill="#FFFFFF" points="88.7010989 28.6813187 56.7054945 28.6813187 72.7032967 11.7418132"></polygon>
                    <path d="M114.131868,70.1098901 L82.2637363,70.1098901 C79.6234615,70.1098901 77.4835165,72.2498352 77.4835165,74.8901099 L77.4835165,98.7912088 C77.4835165,101.431484 79.6234615,103.571429 82.2637363,103.571429 L114.131868,103.571429 C116.772143,103.571429 118.912088,101.431484 118.912088,98.7912088 L118.912088,74.8901099 C118.912088,72.2498352 116.772143,70.1098901 114.131868,70.1098901 Z M109.351648,94.010989 L87.043956,94.010989 L87.043956,79.6703297 L109.351648,79.6703297 L109.351648,94.010989 Z" id="Shape" fill="#C12036"></path>
                </g>
            </g>
        </g>
    </g>
</svg>