<?xml version="1.0" encoding="UTF-8" standalone="no"?>
<svg width="83px" height="82px" viewBox="0 0 83 82" version="1.1" xmlns="http://www.w3.org/2000/svg" xmlns:xlink="http://www.w3.org/1999/xlink">
    <!-- Generator: Sketch 41 (35326) - http://www.bohemiancoding.com/sketch -->
    <title>noun_564725_cc</title>
    <desc>Created with Sketch.</desc>
    <defs></defs>
    <g id="Page-1" stroke="none" stroke-width="1" fill="none" fill-rule="evenodd">
        <g id="Club99love-how-it-works" transform="translate(-255.000000, -1404.000000)">
            <g id="noun_564725_cc" transform="translate(255.000000, 1404.000000)">
                <g id="Group">
                    <path d="M24.3613902,47.9570866 C26.4347,47.9570866 28.1192642,49.6358268 28.1192642,51.7019685 C28.1192642,52.9610236 29.1397214,53.9779528 30.4031445,53.9779528 C31.6665677,53.9779528 32.6870248,52.9610236 32.6870248,51.7019685 C32.6870248,47.9086614 30.1277831,44.7125984 26.6452705,43.7279528 L26.6452705,43.05 C26.6452705,41.7909449 25.6248133,40.7740157 24.3613902,40.7740157 C23.097967,40.7740157 22.0775098,41.7909449 22.0775098,43.05 L22.0775098,43.7279528 C18.5949973,44.7287402 16.0357555,47.9248031 16.0357555,51.7019685 C16.0357555,56.2862205 19.7774318,59.9988189 24.3613902,59.9988189 C26.4347,59.9988189 28.1192642,61.6775591 28.1192642,63.7437008 C28.1192642,65.8098425 26.4347,67.4885827 24.3613902,67.4885827 C22.2880804,67.4885827 20.6035162,65.8098425 20.6035162,63.7437008 C20.6035162,62.4846457 19.583059,61.4677165 18.3196358,61.4677165 C17.0562127,61.4677165 16.0357555,62.4846457 16.0357555,63.7437008 C16.0357555,67.5370079 18.5949973,70.7330709 22.0775098,71.7177165 L22.0775098,72.3956693 C22.0775098,73.6547244 23.097967,74.6716535 24.3613902,74.6716535 C25.6248133,74.6716535 26.6452705,73.6547244 26.6452705,72.3956693 L26.6452705,71.7177165 C30.1277831,70.7169291 32.6870248,67.5208661 32.6870248,63.7437008 C32.6870248,59.1594488 28.9453486,55.4468504 24.3613902,55.4468504 C22.2880804,55.4468504 20.6035162,53.7681102 20.6035162,51.7019685 C20.6035162,49.6358268 22.2880804,47.9570866 24.3613902,47.9570866 Z" id="Shape" fill="#9B9B9B"></path>
                    <path d="M54.8455234,15.8834646 C57.3885674,15.8834646 59.4456795,17.9334646 59.4456795,20.4677165 C59.4456795,21.7267717 60.4661366,22.7437008 61.7295598,22.7437008 C62.992983,22.7437008 64.0134401,21.7267717 64.0134401,20.4677165 C64.0134401,16.2062992 61.0816505,12.6389764 57.1294037,11.6220472 L57.1294037,10.5889764 C57.1294037,9.32992126 56.1089465,8.31299213 54.8455234,8.31299213 C53.5821002,8.31299213 52.561643,9.32992126 52.561643,10.5889764 L52.561643,11.6220472 C48.6093962,12.6389764 45.6776066,16.2062992 45.6776066,20.4677165 C45.6776066,25.503937 49.7918307,29.6200787 54.8455234,29.6200787 C57.3885674,29.6200787 59.4456795,31.6700787 59.4456795,34.2043307 C59.4456795,36.7385827 57.3885674,38.7885827 54.8455234,38.7885827 C52.3024793,38.7885827 50.2453672,36.7224409 50.2453672,34.2043307 C50.2453672,32.9452756 49.2249101,31.9283465 47.9614869,31.9283465 C46.6980637,31.9283465 45.6776066,32.9452756 45.6776066,34.2043307 C45.6776066,38.465748 48.6093962,42.0330709 52.561643,43.05 L52.561643,44.0669291 C52.561643,45.3259843 53.5821002,46.3429134 54.8455234,46.3429134 C56.1089465,46.3429134 57.1294037,45.3259843 57.1294037,44.0669291 L57.1294037,43.05 C61.0816505,42.0330709 64.0134401,38.465748 64.0134401,34.2043307 C64.0134401,29.1681102 59.899216,25.0681102 54.8455234,25.0681102 C52.3024793,25.0681102 50.2453672,23.0019685 50.2453672,20.4838583 C50.2453672,17.9496063 52.318677,15.8834646 54.8455234,15.8834646 Z" id="Shape" fill="#9B9B9B"></path>
                    <path d="M54.8455234,0 C39.7168409,0 27.4065639,12.2677165 27.4065639,27.3440945 C27.4065639,29.5232283 27.6819254,31.6216535 28.1678574,33.6393701 C28.1516597,33.6877953 28.1516597,33.7200787 28.1516597,33.7685039 C26.9044342,33.5748031 25.6410111,33.461811 24.3613902,33.461811 C10.9334697,33.461811 0,44.3413386 0,57.7228346 C0,71.1043307 10.9334697,82 24.3613902,82 C37.7893107,82 48.7227803,71.1043307 48.7227803,57.7228346 C48.7227803,56.4314961 48.6093962,55.1562992 48.3988257,53.8972441 C50.4721355,54.3976378 52.626434,54.688189 54.8617211,54.688189 C69.9904035,54.688189 82.3006805,42.4204724 82.3006805,27.3440945 C82.2844828,12.2677165 69.9742058,0 54.8455234,0 Z M24.3613902,77.4480315 C13.4441182,77.4480315 4.56776066,68.6023622 4.56776066,57.7228346 C4.56776066,46.8594488 13.4441182,38.0137795 24.3613902,38.0137795 C26.2727226,38.0137795 28.1516597,38.288189 29.949608,38.8208661 C32.6708271,44.6641732 37.465356,49.4582677 43.345133,52.1700787 C43.8796582,53.961811 44.1550197,55.834252 44.1550197,57.7389764 C44.138822,68.6023622 35.2624644,77.4480315 24.3613902,77.4480315 Z M54.8455234,50.1200787 C45.467036,50.1200787 37.4167628,44.4704724 33.8856571,36.415748 L36.1209442,36.415748 C37.3843674,36.415748 38.4048245,35.3988189 38.4048245,34.1397638 C38.4048245,32.8807087 37.3843674,31.8637795 36.1209442,31.8637795 L32.4440589,31.8637795 C32.1524997,30.3948819 31.9905223,28.8937008 31.9905223,27.3440945 L31.9905223,27.311811 L41.8387439,27.311811 C43.1021671,27.311811 44.1226242,26.2948819 44.1226242,25.0358268 C44.1226242,23.7767717 43.1021671,22.7598425 41.8387439,22.7598425 L32.4602566,22.7598425 C34.5983573,12.3968504 43.831065,4.56811024 54.8617211,4.56811024 C67.4635572,4.56811024 77.7167221,14.7858268 77.7167221,27.3602362 C77.7167221,39.9023622 67.4635572,50.1200787 54.8455234,50.1200787 Z" id="Shape" fill="#C12036"></path>
                </g>
            </g>
        </g>
    </g>
</svg>