<?xml version="1.0" encoding="UTF-8" standalone="no"?>
<svg width="150px" height="160px" viewBox="0 0 150 160" version="1.1" xmlns="http://www.w3.org/2000/svg" xmlns:xlink="http://www.w3.org/1999/xlink">
    <!-- Generator: Sketch 41 (35326) - http://www.bohemiancoding.com/sketch -->
    <title>Group 7</title>
    <desc>Created with Sketch.</desc>
    <defs>
        <path d="M109.90405,8.78029878 C123.805956,8.78029878 135.115785,20.1186576 135.115785,34.0556317 C135.115785,42.0686317 125.527268,56.1083923 117.823241,67.3917387 C114.572676,72.1517647 111.906952,76.0967376 109.90405,79.4307826 C107.899703,76.0952899 105.235424,72.1517647 101.984858,67.3917387 C94.2808313,56.1083923 84.6923139,42.0686317 84.6923139,34.0556317 C84.6923139,20.1186576 96.0021434,8.78029878 109.90405,8.78029878 Z" id="path-1"></path>
        <mask id="mask-2" maskContentUnits="userSpaceOnUse" maskUnits="objectBoundingBox" x="-12" y="-12" width="74.4234715" height="94.6504838">
            <rect x="72.6923139" y="-3.21970122" width="74.4234715" height="94.6504838" fill="white"></rect>
            <use xlink:href="#path-1" fill="black"></use>
        </mask>
    </defs>
    <g id="Page-1" stroke="none" stroke-width="1" fill="none" fill-rule="evenodd">
        <g id="Club99love-how-it-works" transform="translate(-955.000000, -863.000000)">
            <g id="Group-7" transform="translate(955.000000, 867.000000)">
                <path d="M138.942528,49.9527868 C141.850852,44.2155656 143.780108,38.7577499 143.780108,34.0570794 C143.780108,15.3296777 128.58433,0.0955675676 109.90405,0.0955675676 C91.2237693,0.0955675676 76.0279909,15.3296777 76.0279909,34.0556317 C76.0279909,38.7563022 77.9572468,44.2155656 80.8670153,49.9527868 L74.7673319,52.1894779 L39.6291701,39.2991884 L0.15740286,53.7790486 L0.15740286,155.392865 L39.6277261,140.9159 L74.7658879,153.803294 L109.902606,140.9159 L149.374373,155.392865 L149.374373,53.7790486 L138.942528,49.9527868 Z" id="Shape" fill="#C12036"></path>
                <path d="M140.711494,142.967286 L114.236211,133.257586 L114.236211,90.4824976 C114.308414,87.9186271 120.471636,78.8907918 124.974195,72.297982 C128.220428,67.5451945 131.622619,62.5564324 134.630583,57.6183397 L140.712938,59.84924 L140.712938,142.967286 L140.711494,142.967286 Z" id="Path" fill="#FFFFFF"></path>
                <path d="M105.571888,133.257586 L79.0994934,142.967286 L79.0994934,59.8506877 L85.17896,57.6212351 C88.1869241,62.5593278 91.5876709,67.5451945 94.8353479,72.2994297 C99.3364637,78.8922395 105.501129,87.9186271 105.573332,90.4839453 L105.573332,90.4955269 L105.573332,90.4984222 L105.573332,90.5071084 L105.573332,90.5157946 L105.573332,90.51869 L105.573332,90.5302716 L105.573332,133.257586 L105.571888,133.257586 Z" id="Path" fill="#FFFFFF"></path>
                <g id="Path">
                    <use fill="#FFFFFF" fill-rule="evenodd" xlink:href="#path-1"></use>
                    <use stroke="#9B9B9B" mask="url(#mask-2)" stroke-width="24" xlink:href="#path-1"></use>
                </g>
                <polygon id="Path" fill="#FFFFFF" points="70.4351704 142.967286 43.9598876 133.257586 43.9598876 50.138092 70.4351704 59.8506877"></polygon>
                <polygon id="Path" fill="#FFFFFF" points="35.2955646 133.257586 8.82172582 142.967286 8.82172582 59.8506877 35.2955646 50.138092"></polygon>
            </g>
        </g>
    </g>
</svg>