<?xml version="1.0" encoding="UTF-8" standalone="no"?>
<svg width="68px" height="68px" viewBox="0 0 68 68" version="1.1" xmlns="http://www.w3.org/2000/svg" xmlns:xlink="http://www.w3.org/1999/xlink">
    <!-- Generator: Sketch 41 (35326) - http://www.bohemiancoding.com/sketch -->
    <title>Group</title>
    <desc>Created with Sketch.</desc>
    <defs></defs>
    <g id="Page-1" stroke="none" stroke-width="1" fill="none" fill-rule="evenodd">
        <g id="Club99love-how-it-works" transform="translate(-672.000000, -1404.000000)">
            <g id="noun_583237_cc" transform="translate(673.000000, 1404.000000)">
                <g id="Group">
                    <path d="M1.6097561,0.807228916 C0.720749175,0.807318063 8.88873598e-05,1.53008324 0,2.42168675 L1.42975063e-15,58.9277108 C8.88873598e-05,59.8193144 0.720749175,60.5420795 1.6097561,60.5421687 L6.43902439,60.5421687 L6.43902439,65.3855422 C6.43911328,66.2771457 7.15977357,66.9999109 8.04878049,67 L19.3170732,67 C20.2060801,66.9999109 20.9267404,66.2771457 20.9268293,65.3855422 L20.9268293,60.5421687 L45.0731707,60.5421687 L45.0731707,65.3855422 C45.0732596,66.2771457 45.7939199,66.9999109 46.6829268,67 L57.9512195,67 C58.8402264,66.9999109 59.5608867,66.2771457 59.5609756,65.3855422 L59.5609756,60.5421687 L64.3902439,60.5421687 C65.2792508,60.5420795 65.9999111,59.8193144 66,58.9277108 L66,2.42168675 C66.003593,1.58598761 65.3707553,0.885644397 64.5411585,0.807228916 C64.4908813,0.804862924 64.4405211,0.804862924 64.3902439,0.807228916 L1.6097561,0.807228916 Z" id="Path" stroke="#C12036" fill="#C12036"></path>
                    <polygon id="Path" fill="#FFFFFF" points="3.2195122 4.03614458 62.7804878 4.03614458 62.7804878 57.313253 3.2195122 57.313253"></polygon>
                    <polygon id="Path" fill="#C12036" points="48.2926829 60.5421687 56.3414634 60.5421687 56.3414634 63.7710843 48.2926829 63.7710843"></polygon>
                    <polygon id="Path" fill="#C12036" points="9.65853659 60.5421687 17.7073171 60.5421687 17.7073171 63.7710843 9.65853659 63.7710843"></polygon>
                    <path d="M33,11.3012048 C22.3505426,11.3012048 13.6829268,19.99414 13.6829268,30.6746988 C13.6829268,41.3552414 22.3505426,50.0481928 33,50.0481928 C43.6494574,50.0481928 52.3170732,41.3552414 52.3170732,30.6746988 C52.3170732,19.99414 43.6494574,11.3012048 33,11.3012048 Z" id="Path" fill="#9B9B9B"></path>
                    <path d="M41.3506098,37.3595633 L46.0792683,40.0839608 C43.4516521,43.7531747 39.345017,46.2775902 34.6097561,46.7435994 L34.6097561,41.2695783 L41.3506098,37.3595633 Z" id="Path" fill="#FFFFFF"></path>
                    <path d="M24.6493902,37.3595633 L31.3902439,41.2695783 L31.3902439,46.7435994 C26.654983,46.2775902 22.5483479,43.7531747 19.9207317,40.0839608 L24.6493902,37.3595633 Z" id="Path" fill="#FFFFFF"></path>
                    <path d="M47.663872,24.0402861 C48.5769779,26.0685763 49.097561,28.3002253 49.097561,30.6746988 C49.097561,33.0371882 48.5934441,35.2635861 47.6890244,37.2838855 L42.9603659,34.559488 L42.9603659,26.7646837 L47.663872,24.0402861 Z" id="Path" fill="#FFFFFF"></path>
                    <path d="M18.336128,24.0402861 L23.0396341,26.7646837 L23.0396341,34.559488 L18.3109756,37.2838855 C17.4065559,35.2635861 16.902439,33.0371882 16.902439,30.6746988 C16.902439,28.3002253 17.4230221,26.0685763 18.336128,24.0402861 Z" id="Path" fill="#FFFFFF"></path>
                    <polygon id="Path" fill="#FFFFFF" points="33 22.8546687 39.7408537 26.7646837 39.7408537 34.5847139 33 38.4947289 26.2591463 34.5847139 26.2591463 26.7646837"></polygon>
                    <path d="M34.6097561,14.6057982 C39.3326396,15.0705925 43.4255628,17.586612 46.0541159,21.2402108 L41.3506098,23.9646084 L34.6097561,20.0798193 L34.6097561,14.6057982 Z" id="Path" fill="#FFFFFF"></path>
                    <path d="M31.339939,14.6057982 C31.3563062,14.6041369 31.3738622,14.6074102 31.3902439,14.6057982 L31.3902439,20.0798193 L24.6493902,23.9646084 L19.9458841,21.2402108 C22.5653203,17.5992855 26.6376386,15.0830497 31.339939,14.6057982 Z" id="Path" fill="#FFFFFF"></path>
                </g>
            </g>
        </g>
    </g>
</svg>