<?xml version="1.0" encoding="UTF-8"?>
<svg width="134px" height="134px" viewBox="0 0 134 134" version="1.1" xmlns="http://www.w3.org/2000/svg" xmlns:xlink="http://www.w3.org/1999/xlink">
    <!-- Generator: Sketch 41.2 (35397) - http://www.bohemiancoding.com/sketch -->
    <title>noun_564725_cc</title>
    <desc>Created with Sketch.</desc>
    <defs></defs>
    <g id="Page-1" stroke="none" stroke-width="1" fill="none" fill-rule="evenodd">
        <g id="Club99love-home-4" transform="translate(-312.000000, -1198.000000)">
            <g id="noun_564725_cc" transform="translate(312.000000, 1198.000000)">
                <g id="Group">
                    <path d="M39.896579,78.6037541 C43.2920326,78.6037541 46.0508386,81.3552823 46.0508386,84.7417786 C46.0508386,86.8054248 47.7220383,88.472216 49.7911428,88.472216 C51.8602473,88.472216 53.5314471,86.8054248 53.5314471,84.7417786 C53.5314471,78.5243831 49.3401842,73.2858966 43.6368833,71.6720195 L43.6368833,70.5608254 C43.6368833,68.4971792 41.9656835,66.830388 39.896579,66.830388 C37.8274745,66.830388 36.1562747,68.4971792 36.1562747,70.5608254 L36.1562747,71.6720195 C30.4529739,73.3123536 26.2617109,78.5508401 26.2617109,84.7417786 C26.2617109,92.2555673 32.3894435,98.3406779 39.896579,98.3406779 C43.2920326,98.3406779 46.0508386,101.092206 46.0508386,104.478702 C46.0508386,107.865199 43.2920326,110.616727 39.896579,110.616727 C36.5011255,110.616727 33.7423195,107.865199 33.7423195,104.478702 C33.7423195,102.415056 32.0711197,100.748265 30.0020152,100.748265 C27.9329107,100.748265 26.2617109,102.415056 26.2617109,104.478702 C26.2617109,110.696098 30.4529739,115.934584 36.1562747,117.548462 L36.1562747,118.659656 C36.1562747,120.723302 37.8274745,122.390093 39.896579,122.390093 C41.9656835,122.390093 43.6368833,120.723302 43.6368833,118.659656 L43.6368833,117.548462 C49.3401842,115.908127 53.5314471,110.669641 53.5314471,104.478702 C53.5314471,96.9649137 47.4037146,90.8798032 39.896579,90.8798032 C36.5011255,90.8798032 33.7423195,88.1282749 33.7423195,84.7417786 C33.7423195,81.3552823 36.5011255,78.6037541 39.896579,78.6037541 Z" id="Shape" fill="#9B9B9B"></path>
                    <path d="M89.8203568,26.0336903 C93.9850928,26.0336903 97.3540193,29.3937296 97.3540193,33.547479 C97.3540193,35.6111252 99.0252191,37.2779164 101.094324,37.2779164 C103.163428,37.2779164 104.834628,35.6111252 104.834628,33.547479 C104.834628,26.5628304 100.033244,20.7158329 93.5606611,19.0490417 L93.5606611,17.3557936 C93.5606611,15.2921474 91.8894613,13.6253562 89.8203568,13.6253562 C87.7512523,13.6253562 86.0800525,15.2921474 86.0800525,17.3557936 L86.0800525,19.0490417 C79.6074692,20.7158329 74.8060857,26.5628304 74.8060857,33.547479 C74.8060857,41.8020638 81.5439388,48.5485994 89.8203568,48.5485994 C93.9850928,48.5485994 97.3540193,51.9086387 97.3540193,56.062388 C97.3540193,60.2161374 93.9850928,63.5761767 89.8203568,63.5761767 C85.6556208,63.5761767 82.2866942,60.1896804 82.2866942,56.062388 C82.2866942,53.9987419 80.6154945,52.3319507 78.54639,52.3319507 C76.4772855,52.3319507 74.8060857,53.9987419 74.8060857,56.062388 C74.8060857,63.0470367 79.6074692,68.8940342 86.0800525,70.5608254 L86.0800525,72.2276165 C86.0800525,74.2912627 87.7512523,75.9580538 89.8203568,75.9580538 C91.8894613,75.9580538 93.5606611,74.2912627 93.5606611,72.2276165 L93.5606611,70.5608254 C100.033244,68.8940342 104.834628,63.0470367 104.834628,56.062388 C104.834628,47.8078033 98.0967748,41.0877247 89.8203568,41.0877247 C85.6556208,41.0877247 82.2866942,37.7012284 82.2866942,33.573936 C82.2866942,29.4201866 85.6821478,26.0336903 89.8203568,26.0336903 Z" id="Shape" fill="#9B9B9B"></path>
                    <path d="M89.0419213,0 C64.4804463,0 44.4946636,19.9330601 44.4946636,44.4297418 C44.4946636,47.9704827 44.941714,51.3800851 45.7306264,54.6585489 C45.7043294,54.737232 45.7043294,54.7896875 45.7043294,54.8683706 C43.679454,54.5536381 41.6282816,54.3700441 39.5508121,54.3700441 C17.7505307,54.3700441 0,72.047521 0,93.7902931 C0,115.533065 17.7505307,133.23677 39.5508121,133.23677 C61.3510934,133.23677 79.1016241,115.533065 79.1016241,93.7902931 C79.1016241,91.6920763 78.9175445,89.6200871 78.5756825,87.5743257 C81.941709,88.3873847 85.439221,88.8594835 89.0682184,88.8594835 C113.629693,88.8594835 133.615476,68.9264235 133.615476,44.4297418 C133.589179,19.9330601 113.603396,0 89.0419213,0 Z M39.5508121,125.840555 C21.8265785,125.840555 7.41577726,111.46777 7.41577726,93.7902931 C7.41577726,76.1390439 21.8265785,61.7662585 39.5508121,61.7662585 C42.6538678,61.7662585 45.7043294,62.2121296 48.6233055,63.077644 C53.0412154,72.5720752 60.8251518,80.3617053 70.3709927,84.7679607 C71.2387965,87.6792366 71.6858469,90.721651 71.6858469,93.8165208 C71.6595498,111.46777 57.2487486,125.840555 39.5508121,125.840555 Z M89.0419213,81.4370414 C73.8159105,81.4370414 60.7462605,72.2573427 55.0134966,59.1697151 L58.642494,59.1697151 C60.6936664,59.1697151 62.3503826,57.5173694 62.3503826,55.4716079 C62.3503826,53.4258465 60.6936664,51.7735007 58.642494,51.7735007 L52.6730562,51.7735007 C52.1997087,49.3867791 51.9367379,46.947602 51.9367379,44.4297418 L51.9367379,44.3772863 L67.9253641,44.3772863 C69.9765365,44.3772863 71.6332527,42.7249406 71.6332527,40.6791791 C71.6332527,38.6334177 69.9765365,36.981072 67.9253641,36.981072 L52.6993533,36.981072 C56.1705682,20.1428817 71.1599052,7.4224421 89.0682184,7.4224421 C109.527349,7.4224421 126.173402,24.0245829 126.173402,44.4559695 C126.173402,64.8349006 109.527349,81.4370414 89.0419213,81.4370414 Z" id="Shape" fill="#C12036"></path>
                </g>
            </g>
        </g>
    </g>
</svg>