<?xml version="1.0" encoding="UTF-8"?>
<svg width="104px" height="108px" viewBox="0 0 104 108" version="1.1" xmlns="http://www.w3.org/2000/svg" xmlns:xlink="http://www.w3.org/1999/xlink">
    <!-- Generator: Sketch 41.2 (35397) - http://www.bohemiancoding.com/sketch -->
    <title>noun_473315_cc</title>
    <desc>Created with Sketch.</desc>
    <defs></defs>
    <g id="Page-1" stroke="none" stroke-width="1" fill="none" fill-rule="evenodd">
        <g id="Club99love-home-4" transform="translate(-964.000000, -662.000000)">
            <g id="noun_473315_cc" transform="translate(964.000000, 662.000000)">
                <path d="M18.0559036,15.3178295 C19.8872872,11.1244761 24.311972,8.70150993 28.8192771,9.42378477 C29.6240532,9.55749575 30.4104515,9.78525713 31.1624096,10.1024168 C33.745707,4.11804736 39.6140953,0.233190241 46.1159299,0.203226931 C52.6177646,0.17326362 58.5214993,4.00386963 61.1595181,9.96417693 C63.7564553,8.85363567 66.6999114,8.89290602 69.2664771,10.0723365 C71.8330428,11.2517671 73.7847491,13.4620024 74.6419277,16.1598358 L54.9821687,15.8833561 C55.1966947,11.0248621 51.4436542,6.91185134 46.5995181,6.69668947 C41.755382,6.48152759 37.654526,10.245692 37.44,15.104186 C37.44,15.2675604 37.44,15.4560693 37.3522892,15.6445782 L18.0559036,15.3178295 Z" id="Path" fill="#C12036"></path>
                <path d="M13.5325301,81.9243046 L66.5098795,81.9243046 C74.1281928,81.9243046 80.1927711,75.6406749 82.6987952,65.5868673 L82.6987952,65.5868673 L95.3291566,23.1849339 C95.9902845,20.8899898 97.1069235,18.7526831 98.6120482,16.9013041 C99.8992593,15.2000843 101.872954,14.1596722 104,14.0611035 L104,6.52074783 C96.4819277,6.52074783 91.3946988,11.4345463 88.6255422,19.4901596 L10.1995181,20.1185226 L10.1995181,20.1185226 C8.63325301,20.382435 3.83421687,21.1616051 1.42843373,24.9066484 C0.0192226227,27.2653694 -0.265691818,30.1321766 0.651566265,32.7234838 L13.9209639,65.5868673 L74.8549398,65.5868673 C73.7522892,69.3570451 71.2337349,74.3839489 66.5474699,74.3839489 L13.5701205,74.3839489 L13.5701205,81.9243046 L13.5325301,81.9243046 Z" id="Path" fill="#C12036"></path>
                <path d="M76.8472289,58.0465116 L19.0959036,58.0465116 L7.81879518,30.5242134 C7.63299137,30.0128372 7.63299137,29.452115 7.81879518,28.9407387 C7.94409639,28.7396626 8.58313253,28.0484633 11.3648193,27.5834747 L86.5455422,27.4075331 L76.8472289,58.0465116 Z" id="Path" fill="#F7F7F7"></path>
                <path d="M72.4240964,99.5184679 C71.0400575,99.5184679 69.9180723,98.3931571 69.9180723,97.005016 C69.9180723,95.6168748 71.0400575,94.4915641 72.4240964,94.4915641 C73.8081353,94.4915641 74.9301205,95.6168748 74.9301205,97.005016 C74.9301205,98.3931571 73.8081353,99.5184679 72.4240964,99.5184679 Z" id="Path" fill="#999999"></path>
                <path d="M72.4240964,86.9512084 C66.8879408,86.9512084 62.4,91.4524514 62.4,97.005016 C62.4,102.557581 66.8879408,107.058824 72.4240964,107.058824 C77.960252,107.058824 82.4481928,102.557581 82.4481928,97.005016 C82.4481928,91.4524514 77.960252,86.9512084 72.4240964,86.9512084 Z" id="Path" fill="#999999"></path>
                <path d="M22.3036145,99.5184679 C20.9195756,99.5184679 19.7975904,98.3931571 19.7975904,97.005016 C19.7975904,95.6168748 20.9195756,94.4915641 22.3036145,94.4915641 C23.6876533,94.4915641 24.8096386,95.6168748 24.8096386,97.005016 C24.8096386,98.3931571 23.6876533,99.5184679 22.3036145,99.5184679 Z" id="Path" fill="#999999"></path>
                <path d="M22.3036145,86.9512084 C16.7674589,86.9512084 12.2795181,91.4524514 12.2795181,97.005016 C12.2795181,102.557581 16.7674589,107.058824 22.3036145,107.058824 C27.83977,107.058824 32.3277108,102.557581 32.3277108,97.005016 C32.3277108,91.4524514 27.83977,86.9512084 22.3036145,86.9512084 Z" id="Path" fill="#999999"></path>
            </g>
        </g>
    </g>
</svg>