<?xml version="1.0" encoding="UTF-8"?>
<svg width="150px" height="44px" viewBox="0 0 150 44" version="1.1" xmlns="http://www.w3.org/2000/svg" xmlns:xlink="http://www.w3.org/1999/xlink">
    <!-- Generator: Sketch 41.1 (35376) - http://www.bohemiancoding.com/sketch -->
    <title>Group 3 Copy</title>
    <desc>Created with Sketch.</desc>
    <defs></defs>
    <g id="Page-1" stroke="none" stroke-width="1" fill="none" fill-rule="evenodd">
        <g id="Club99love-signup-1" transform="translate(-38.000000, -22.000000)">
            <g id="Group-3-Copy" transform="translate(38.000000, 22.000000)">
                <rect id="Rectangle-path" fill="#FFFFFF" x="94.1646341" y="34.875" width="3.04268293" height="3.63179348"></rect>
                <rect id="Rectangle-path" fill="#FFFFFF" x="100.670732" y="20.5067935" width="2.34146341" height="18.0061141"></rect>
                <path d="M112.981707,24.7194293 L112.713415,24.7194293 C110.924695,24.7111535 109.212996,25.4486307 107.987805,26.7554348 C105.259986,29.4732967 105.184313,33.8742458 107.817073,36.6847826 C109.043091,38.0197871 110.763425,38.7894066 112.573171,38.8125 L112.841463,38.8125 C114.6252,38.8205593 116.333858,38.0932355 117.567073,36.8009511 C120.322607,34.1037111 120.396072,29.6838769 117.731707,26.8960598 C116.511321,25.5504322 114.795069,24.7639802 112.981707,24.7194293 L112.981707,24.7194293 Z M112.871951,36.4830163 L112.621951,36.4830163 C111.420862,36.454312 110.287454,35.9193639 109.5,35.0095109 C108.671711,34.1007153 108.233606,32.9014376 108.280488,31.6711957 C108.272199,30.439766 108.765531,29.2582955 109.646341,28.4001359 C110.469162,27.5261783 111.618514,27.0363763 112.817073,27.048913 L112.902439,27.048913 C114.078944,27.0278436 115.207542,27.5157067 116,28.3879076 C116.855594,29.2561469 117.346613,30.4202895 117.371951,31.640625 C117.412524,32.9385351 116.915963,34.1954801 116,35.1134511 C115.209054,36.0092084 114.064805,36.5101991 112.871951,36.4830163 L112.871951,36.4830163 Z" id="Shape" fill="#FFFFFF"></path>
                <polygon id="Shape" fill="#FFFFFF" points="127.567073 35.1012228 123.426829 25.03125 120.939024 25.03125 126.457317 38.5067935 128.658537 38.5067935 134.268293 25.03125 131.689024 25.03125"></polygon>
                <path d="M12.0060976,34.2391304 C11.1229499,35.7092102 9.50865361,36.5771997 7.79878049,36.5013587 L7.71341463,36.5013587 C6.47444881,36.5104743 5.28453639,36.0164545 4.41463415,35.1317935 C3.48889293,34.2561227 2.96952536,33.0328463 2.98170732,31.7567935 C2.97673605,30.4552963 3.53779378,29.2162756 4.51829268,28.3634511 C5.3768526,27.496896 6.54401099,27.0085252 7.76219512,27.0061141 L7.84146341,27.0061141 C9.5570817,26.9644777 11.152283,27.886924 11.9756098,29.3967391 L12.0670732,29.5495924 L14.6707317,29.5495924 L14.2256098,28.5407609 C13.6871192,27.3905068 12.8132682,26.4311357 11.7195122,25.7894022 C10.5841396,25.06896 9.27039946,24.6813913 7.92682927,24.6705163 L7.80487805,24.6705163 C5.89084261,24.6823597 4.05886287,25.451421 2.70731707,26.810462 C1.32935115,28.0940613 0.565763187,29.9080592 0.609756098,31.7934783 C0.608963953,33.6660743 1.38680809,35.4542163 2.75609756,36.7275815 C4.10103668,38.0402688 5.90360695,38.7751013 7.7804878,38.7758152 L7.8597561,38.7758152 C10.5876059,38.8790545 13.1194517,37.3591752 14.3170732,34.8994565 L14.7073171,34.0618207 L12.097561,34.0618207 L12.0060976,34.2391304 Z" id="Shape" fill="#FFFFFF"></path>
                <rect id="Rectangle-path" fill="#FFFFFF" x="17.7012195" y="20.5067935" width="2.34146341" height="18.0061141"></rect>
                <path d="M33.2134146,32.8756793 C33.2134146,34.8763984 31.5959068,36.4983016 29.6006098,36.4983016 C27.6053127,36.4983016 25.9878049,34.8763984 25.9878049,32.8756793 L25.9878049,25.03125 L23.6219512,25.03125 L23.6219512,32.673913 C23.5783901,34.3045643 24.1864832,35.8850599 25.3109756,37.0638587 C26.429038,38.2183592 27.9746662,38.8560029 29.5792683,38.8247283 C31.186244,38.8688305 32.736815,38.2291478 33.847561,37.0638587 C34.9846366,35.891837 35.6004624,34.3083925 35.554878,32.673913 L35.554878,25.03125 L33.2134146,25.03125 L33.2134146,32.8756793 Z" id="Shape" fill="#FFFFFF"></path>
                <path d="M46.0792683,24.7133152 L45.7987805,24.7133152 C44.1631632,24.7432839 42.5975877,25.3842977 41.4085366,26.5108696 L41.4085366,20.5067935 L39.0914634,20.5067935 L39.0914634,31.7384511 C39.063837,35.5727057 42.109942,38.7196452 45.9329268,38.8063859 L46.2012195,38.8063859 C48.0103943,38.7636804 49.7255934,37.9897434 50.9573171,36.6603261 C53.6211913,33.862917 53.5478244,29.4380481 50.7926829,26.7309783 C49.5689357,25.4315865 47.8615925,24.7007271 46.0792683,24.7133152 L46.0792683,24.7133152 Z M45.9268293,36.4830163 C44.7419267,36.4882139 43.6100923,35.9907191 42.8109756,35.1134511 C41.030061,33.2272159 41.030061,30.2741428 42.8109756,28.3879076 C43.6117039,27.5158294 44.7447498,27.0266954 45.9268293,27.0427989 C47.1508033,27.0190549 48.3274323,27.5167594 49.1646341,28.4123641 C50.0494946,29.25967 50.551555,30.4321197 50.554878,31.6589674 C50.5956281,32.8961034 50.1411321,34.0981767 49.2926829,34.9972826 C48.5026556,35.9104498 47.3695144,36.4530892 46.1646341,36.4952446 L45.9268293,36.4830163 Z" id="Shape" fill="#FFFFFF"></path>
                <path d="M146.786585,34.2391304 C146.044792,35.6591753 144.55489,36.5250958 142.957317,36.4646739 L142.865854,36.4646739 C141.72905,36.4759985 140.628902,36.0617768 139.780488,35.3029891 C138.989147,34.6271711 138.463835,33.6907458 138.29878,32.6616848 L149.75,32.6616848 L149.75,31.4388587 C149.735105,29.733486 149.04918,28.1030077 147.841463,26.9021739 C146.629168,25.5917387 144.961841,24.7973873 143.182927,24.6827446 L142.75,24.6827446 C140.94799,24.6850124 139.224429,25.4222201 137.97561,26.7248641 C136.614234,28.0574145 135.850695,29.8870543 135.859891,31.7946801 C135.869087,33.7023059 136.65023,35.5244587 138.02439,36.84375 C139.285614,38.1273897 141.007798,38.8498535 142.804878,38.8491848 L142.902439,38.8491848 C144.329796,38.8420008 145.719434,38.3889274 146.878049,37.5529891 C148.024231,36.7320989 148.887292,35.5739499 149.347561,34.2391304 L146.786585,34.2391304 Z M139.859756,28.076087 C140.686818,27.3983574 141.724618,27.0327342 142.792683,27.0427989 L142.890244,27.0427989 C143.974496,27.0413681 145.024271,27.4247325 145.853659,28.125 C146.574834,28.7363202 147.093695,29.5529757 147.341463,30.466712 L138.329268,30.466712 C138.565323,29.5236032 139.102875,28.6839461 139.859756,28.076087 L139.859756,28.076087 Z" id="Shape" fill="#FFFFFF"></path>
                <path d="M88.7012195,15.517663 L86.152439,15.517663 L86.152439,12.5584239 C86.0022013,5.73223046 80.4404494,0.277082111 73.6310976,0.277082111 C66.8217457,0.277082111 61.2599939,5.73223046 61.1097561,12.5584239 L61.1097561,15.517663 L55.9146341,15.517663 L55.9146341,41.1664402 C55.9145993,42.6214358 57.0855677,43.8037779 58.5365854,43.8138587 L88.6768293,43.8138587 C90.1336047,43.8104968 91.3137204,42.6271743 91.3170732,41.1664402 L91.3170732,15.517663 L88.7012195,15.517663 Z M83.7804878,13.9524457 L83.7804878,16.9116848 L63.4756098,16.9116848 L63.4756098,12.5584239 C63.4756096,8.92145043 65.4106536,5.56074829 68.5518292,3.74226152 C71.6930048,1.92377474 75.5630928,1.92377474 78.7042684,3.74226152 C81.845444,5.56074829 83.7804879,8.92145043 83.7804878,12.5584239 L83.7804878,13.9524457 Z" id="Shape" fill="#FFFFFF"></path>
                <path d="M66.195122,20.5862772 C62.2944659,20.5963954 59.1395973,23.7735198 59.1463415,27.6847826 C59.1019747,29.5578437 59.8666519,31.3588266 61.2439024,32.625 C62.417119,33.7580555 63.9693455,34.4120238 65.597561,34.4592391 L61.3292683,38.7391304 L64.5853659,38.7391304 L70.8536585,32.4538043 C72.2273961,31.1403289 72.9939773,29.3128128 72.9695122,27.4096467 C72.984206,25.5981225 72.2747003,23.8561646 70.9994819,22.5728855 C69.7242635,21.2896064 67.9895828,20.5719281 66.1829268,20.580163 L66.195122,20.5862772 Z M65.8780488,32.203125 C64.7196138,32.2251704 63.6049697,31.7594733 62.804878,30.9191576 C61.9164325,30.080857 61.4281833,28.901424 61.4634146,27.6786685 C61.4868397,25.0480327 63.6202912,22.9278843 66.2439024,22.9279891 C67.3725962,22.8936278 68.4688769,23.309148 69.2926829,24.0835598 C70.2216726,24.9133809 70.7354083,26.1138617 70.695122,27.3607337 C70.7034143,28.6479995 70.1950048,29.8845118 69.2843555,30.7918855 C68.3737061,31.6992593 67.1373579,32.201229 65.8536585,32.1847826 L65.8780488,32.203125 Z" id="Shape" fill="#C12036"></path>
                <path d="M81.3109756,20.5862772 C77.4150872,20.6031242 74.2676311,23.7782771 74.2743902,27.6847826 C74.2315799,29.5587994 74.9985445,31.3599337 76.3780488,32.625 C77.550937,33.7585555 79.1033655,34.4126089 80.7317073,34.4592391 L76.4634146,38.7391304 L79.7256098,38.7391304 L85.9756098,32.4599185 C87.3493473,31.146443 88.1159286,29.3189269 88.0914634,27.4157609 C88.1078154,25.6037378 87.3988438,23.8608128 86.1232642,22.5771702 C84.8476846,21.2935276 83.1120376,20.5763813 81.304878,20.5862772 L81.3109756,20.5862772 Z M80.9939024,32.203125 C79.8362608,32.2309097 78.7197751,31.7720176 77.9146341,30.9375 C77.0261886,30.0991994 76.5379394,28.9197664 76.5731707,27.6970109 C76.5965958,25.0663751 78.7300473,22.9462267 81.3536585,22.9463315 C82.4823523,22.9119702 83.578633,23.3274904 84.402439,24.1019022 C85.3314287,24.9317232 85.8451644,26.1322041 85.804878,27.3790761 C85.8113684,28.6546177 85.3105779,29.88015 84.4133581,30.784398 C83.5161384,31.6886459 82.2964917,32.1970275 81.0243902,32.1970109 L80.9939024,32.203125 Z" id="Shape" fill="#C12036"></path>
            </g>
        </g>
    </g>
</svg>