<?xml version="1.0" encoding="utf-8"?>
<!-- Generator: Adobe Illustrator 16.0.0, SVG Export Plug-In . SVG Version: 6.00 Build 0)  -->
<!DOCTYPE svg PUBLIC "-//W3C//DTD SVG 1.1//EN" "http://www.w3.org/Graphics/SVG/1.1/DTD/svg11.dtd">
<svg version="1.1" id="Layer_1" xmlns="http://www.w3.org/2000/svg" xmlns:xlink="http://www.w3.org/1999/xlink" x="0px" y="0px"
	 width="150px" height="44px" viewBox="0 0 150 44" enable-background="new 0 0 150 44" xml:space="preserve">
<title>Group 3 Copy</title>
<desc>Created with Sketch.</desc>
<rect id="Rectangle-path" x="94.164" y="34.875" fill="#C12036" width="3.043" height="3.632"/>
<rect id="Rectangle-path_1_" x="100.671" y="20.507" fill="#C12036" width="2.341" height="18.006"/>
<path id="Shape" fill="#C12036" d="M112.981,24.719h-0.269c-1.788-0.008-3.5,0.73-4.725,2.037c-2.729,2.717-2.804,7.118-0.172,9.929
	c1.227,1.335,2.947,2.104,4.757,2.128h0.269c1.783,0.008,3.492-0.719,4.725-2.012c2.756-2.697,2.83-7.117,0.165-9.904
	C116.512,25.551,114.795,24.764,112.981,24.719L112.981,24.719z M112.872,36.482h-0.25c-1.201-0.028-2.335-0.563-3.122-1.473
	c-0.828-0.909-1.267-2.108-1.22-3.338c-0.008-1.232,0.485-2.414,1.366-3.271c0.822-0.874,1.973-1.364,3.17-1.352h0.086
	c1.177-0.021,2.305,0.467,3.098,1.339c0.855,0.868,1.347,2.032,1.372,3.253c0.04,1.298-0.456,2.555-1.372,3.473
	C115.209,36.01,114.064,36.51,112.872,36.482L112.872,36.482z"/>
<polygon id="Shape_1_" fill="#C12036" points="127.566,35.102 123.427,25.031 120.939,25.031 126.457,38.507 128.658,38.507 
	134.269,25.031 131.689,25.031 "/>
<path id="Shape_2_" fill="#C12036" d="M12.006,34.239c-0.883,1.47-2.497,2.338-4.207,2.263H7.713
	c-1.239,0.009-2.429-0.485-3.299-1.37c-0.926-0.876-1.445-2.099-1.433-3.375c-0.005-1.302,0.556-2.54,1.537-3.394
	c0.858-0.866,2.025-1.354,3.244-1.357h0.079c1.716-0.041,3.311,0.881,4.134,2.391l0.091,0.153h2.604l-0.445-1.009
	c-0.539-1.15-1.412-2.109-2.506-2.752c-1.136-0.721-2.449-1.107-3.793-1.119H7.805c-1.914,0.013-3.746,0.781-5.097,2.141
	c-1.378,1.283-2.142,3.098-2.098,4.982c-0.001,1.873,0.777,3.661,2.146,4.935c1.345,1.313,3.148,2.048,5.024,2.048h0.08
	c2.728,0.104,5.26-1.416,6.457-3.876l0.391-0.837h-2.61L12.006,34.239z"/>
<rect id="Rectangle-path_2_" x="17.701" y="20.507" fill="#C12036" width="2.341" height="18.006"/>
<path id="Shape_3_" fill="#C12036" d="M33.213,32.875c0,2.002-1.618,3.623-3.613,3.623s-3.613-1.621-3.613-3.623v-7.844h-2.366
	v7.643c-0.044,1.631,0.564,3.211,1.689,4.391c1.118,1.154,2.664,1.791,4.268,1.76c1.607,0.045,3.158-0.596,4.269-1.76
	c1.137-1.173,1.753-2.756,1.707-4.391v-7.643h-2.341V32.875z"/>
<path id="Shape_4_" fill="#C12036" d="M46.079,24.713h-0.28c-1.636,0.03-3.201,0.672-4.39,1.798v-6.004h-2.317v11.231
	c-0.027,3.834,3.019,6.981,6.842,7.068h0.268c1.809-0.043,3.524-0.816,4.756-2.146c2.664-2.797,2.59-7.223-0.165-9.93
	C49.569,25.432,47.861,24.701,46.079,24.713L46.079,24.713z M45.927,36.482c-1.185,0.006-2.316-0.492-3.116-1.369
	c-1.781-1.887-1.781-4.839,0-6.726c0.801-0.872,1.934-1.36,3.116-1.345c1.224-0.023,2.401,0.474,3.238,1.369
	c0.885,0.848,1.387,2.02,1.39,3.247c0.041,1.237-0.414,2.438-1.262,3.338c-0.79,0.913-1.923,1.456-3.128,1.498L45.927,36.482z"/>
<path id="Shape_5_" fill="#C12036" d="M146.787,34.239c-0.742,1.42-2.232,2.286-3.83,2.226h-0.092
	c-1.137,0.012-2.236-0.403-3.085-1.162c-0.791-0.676-1.316-1.611-1.481-2.641h11.451v-1.223c-0.015-1.706-0.701-3.336-1.908-4.537
	c-1.213-1.311-2.88-2.105-4.658-2.22h-0.434c-1.802,0.003-3.525,0.739-4.774,2.042c-1.361,1.333-2.125,3.162-2.116,5.07
	c0.01,1.907,0.791,3.729,2.165,5.049c1.261,1.283,2.983,2.006,4.78,2.006h0.098c1.428-0.008,2.816-0.461,3.976-1.297
	c1.146-0.82,2.009-1.979,2.47-3.313H146.787z M139.859,28.076c0.828-0.678,1.865-1.043,2.934-1.033h0.098
	c1.084-0.002,2.134,0.382,2.963,1.082c0.721,0.611,1.24,1.428,1.488,2.342h-9.013C138.565,29.523,139.104,28.684,139.859,28.076
	L139.859,28.076z"/>
<path id="Shape_6_" fill="#C12036" d="M88.701,15.518h-2.549v-2.959C86.002,5.732,80.44,0.277,73.631,0.277
	c-6.809,0-12.371,5.455-12.521,12.281v2.959h-5.195v25.648c0,1.455,1.171,2.638,2.622,2.648h30.14
	c1.457-0.004,2.637-1.188,2.64-2.648V15.518H88.701z M83.78,13.953v2.959H63.476v-4.353c0-3.637,1.935-6.998,5.076-8.816
	s7.011-1.818,10.152,0s5.076,5.179,5.076,8.816V13.953z"/>
<path id="Shape_7_" fill="#FFFFFF" d="M66.195,20.586c-3.901,0.01-7.056,3.187-7.049,7.098c-0.044,1.873,0.72,3.675,2.098,4.94
	c1.173,1.133,2.725,1.787,4.354,1.834l-4.269,4.28h3.256l6.268-6.286c1.374-1.313,2.141-3.141,2.116-5.043
	c0.015-1.813-0.695-3.555-1.97-4.838c-1.275-1.283-3.01-2-4.816-1.992L66.195,20.586z M65.878,32.203
	c-1.158,0.021-2.273-0.443-3.073-1.284c-0.888-0.838-1.376-2.018-1.341-3.24c0.023-2.631,2.157-4.751,4.781-4.751
	c1.128-0.034,2.225,0.381,3.048,1.156c0.929,0.83,1.443,2.029,1.403,3.277c0.008,1.287-0.5,2.523-1.411,3.431
	s-2.147,1.409-3.431,1.393L65.878,32.203z"/>
<path id="Shape_8_" fill="#FFFFFF" d="M81.311,20.586c-3.896,0.017-7.043,3.192-7.036,7.098c-0.043,1.874,0.724,3.675,2.104,4.94
	c1.173,1.134,2.726,1.787,4.354,1.834l-4.269,4.28h3.263l6.25-6.279c1.374-1.313,2.14-3.142,2.116-5.044
	c0.016-1.813-0.693-3.555-1.969-4.839c-1.275-1.284-3.011-2.001-4.818-1.991H81.311z M80.994,32.203
	c-1.158,0.027-2.274-0.432-3.08-1.266c-0.888-0.838-1.376-2.018-1.341-3.24c0.023-2.631,2.157-4.751,4.78-4.751
	c1.129-0.034,2.225,0.382,3.049,1.155c0.93,0.83,1.443,2.031,1.402,3.277c0.007,1.275-0.494,2.501-1.392,3.405
	s-2.116,1.413-3.389,1.413L80.994,32.203z"/>
</svg>
