<?xml version="1.0" encoding="UTF-8"?>
<svg width="75px" height="71px" viewBox="0 0 75 71" version="1.1" xmlns="http://www.w3.org/2000/svg" xmlns:xlink="http://www.w3.org/1999/xlink">
    <!-- Generator: Sketch 41.2 (35397) - http://www.bohemiancoding.com/sketch -->
    <title>noun_594413_cc</title>
    <desc>Created with Sketch.</desc>
    <defs>
        <path d="M62.2325,2.36052632 C61.32,1.99736842 60.225,2.54210526 59.86,3.45 L59.86,3.81315789 C59.6775,4.72105263 60.225,5.44736842 60.955,5.81052632 C65.7,7.62631579 68.62,10.1684211 68.62,12.7105263 C68.62,16.7052632 60.7725,21.2447368 49.275,21.7894737 L47.2675,21.7894737 C46.355,21.7894737 45.4425,21.7894737 44.53,21.6078947 C37.0475,21.2447368 31.025,19.0657895 28.105,16.3421053 C26.8275,15.0710526 26.0975,13.8 26.0975,12.7105263 L26.0975,12.7105263 C26.0975,8.35263158 34.8575,3.63157895 47.2675,3.63157895 C48.18,3.63157895 48.91,2.90526316 49.0925,2.17894737 L49.0925,1.81578947 C49.0925,0.726315789 48.18,0 47.2675,0 C33.3975,0 22.4475,5.62894737 22.4475,12.7105263 L22.4475,12.7105263 C10.0375,13.4368421 0.5475,18.7026316 0.5475,25.4210526 L0.5475,47.2105263 C0.5475,53.9289474 10.4025,59.3763158 23.36,59.9210526 C26.28,65.1868421 35.77,69 47.2675,69 C61.1375,69 72.0875,63.3710526 72.0875,56.2894737 L72.0875,12.7105263 C72.27,8.53421053 68.62,4.72105263 62.2325,2.36052632 Z M22.63,16.5236842 L22.63,34.5 C11.68,33.7736842 4.38,29.4157895 4.38,25.6026316 C4.38,21.4263158 11.68,17.0684211 22.63,16.5236842 Z M4.38,32.1394737 C8.2125,35.4078947 14.7825,37.5868421 22.63,38.1315789 L22.63,45.3947368 C11.68,44.6684211 4.38,40.3105263 4.38,36.4973684 L4.38,32.1394737 L4.38,32.1394737 Z M22.63,56.1078947 C11.68,55.3815789 4.38,51.0236842 4.38,47.2105263 L4.38,43.0342105 C8.2125,46.3026316 14.7825,48.4815789 22.63,49.0263158 L22.63,56.1078947 Z M68.62,56.2894737 C68.62,60.6473684 59.86,65.3684211 47.45,65.3684211 C38.325,65.3684211 31.39,62.8263158 28.105,59.9210526 L28.105,59.9210526 C26.8275,58.8315789 26.28,57.5605263 26.28,56.2894737 L26.28,52.1131579 C27.9225,53.5657895 30.1125,54.8368421 32.85,55.7447368 L32.85,55.7447368 C35.04,56.4710526 37.595,57.1973684 40.15,57.5605263 C42.5225,57.9236842 44.895,58.1052632 47.45,58.1052632 C56.575,58.1052632 64.24,55.7447368 68.62,52.1131579 L68.62,56.2894737 Z M26.28,45.3947368 L26.28,41.2184211 C27.9225,42.6710526 30.1125,43.9421053 32.85,44.85 L32.85,44.85 C33.3975,45.0315789 33.945,45.2131579 34.4925,45.3947368 C36.3175,45.9394737 38.1425,46.3026316 40.15,46.6657895 L40.15,46.6657895 C42.1575,47.0289474 44.53,47.2105263 46.72,47.2105263 L47.45,47.2105263 C48.3625,47.2105263 49.4575,47.2105263 50.37,47.0289474 C54.02,46.8473684 57.4875,46.3026316 60.4075,45.3947368 C63.6925,44.3052632 66.6125,42.8526316 68.62,41.2184211 L68.62,45.3947368 C68.62,49.7526316 59.86,54.4736842 47.45,54.4736842 L46.1725,54.4736842 L46.1725,54.4736842 C43.9825,54.4736842 41.7925,54.1105263 39.785,53.9289474 L39.785,53.9289474 C34.4925,53.0210526 30.4775,51.2052632 28.105,49.0263158 L28.105,49.0263158 C26.8275,47.7552632 26.28,46.4842105 26.28,45.3947368 L26.28,45.3947368 Z M26.28,34.5 L26.28,30.3236842 C27.9225,31.7763158 30.1125,33.0473684 32.85,33.9552632 C33.3975,34.1368421 33.945,34.3184211 34.4925,34.5 C36.3175,35.0447368 38.1425,35.4078947 40.15,35.7710526 C42.1575,36.1342105 44.53,36.3157895 46.72,36.3157895 L47.45,36.3157895 C48.3625,36.3157895 49.4575,36.3157895 50.37,36.1342105 L50.37,36.1342105 C54.02,35.9526316 57.4875,35.4078947 60.4075,34.5 C63.6925,33.4105263 66.6125,31.9578947 68.62,30.3236842 L68.62,34.5 C68.62,38.4947368 61.32,42.8526316 50.37,43.3973684 C49.4575,43.5789474 48.3625,43.5789474 47.45,43.5789474 L46.72,43.5789474 L45.99,43.5789474 C43.8,43.5789474 41.61,43.2157895 39.6025,43.0342105 C34.31,42.1263158 30.295,40.3105263 27.9225,38.1315789 L27.9225,38.1315789 C26.8275,36.8605263 26.28,35.5894737 26.28,34.5 L26.28,34.5 Z M68.62,23.6052632 C68.62,27.6 61.32,31.9578947 50.37,32.5026316 C49.4575,32.6842105 48.3625,32.6842105 47.45,32.6842105 L46.72,32.6842105 L45.99,32.6842105 C43.8,32.6842105 41.61,32.3210526 39.6025,32.1394737 C31.39,30.6868421 26.0975,27.0552632 26.0975,23.7868421 L26.0975,19.6105263 C28.105,21.2447368 31.025,22.6973684 34.31,23.7868421 C37.96,24.8763158 41.975,25.6026316 46.5375,25.6026316 L47.2675,25.6026316 C48.18,25.6026316 49.275,25.6026316 50.1875,25.4210526 L50.1875,25.4210526 C53.8375,25.2394737 57.305,24.6947368 60.225,23.7868421 C63.51,22.6973684 66.43,21.2447368 68.4375,19.6105263 L68.4375,23.6052632 L68.62,23.6052632 Z" id="path-1"></path>
        <mask id="mask-2" maskContentUnits="userSpaceOnUse" maskUnits="objectBoundingBox" x="-1" y="-1" width="73.5465327" height="71">
            <rect x="-0.4525" y="-1" width="73.5465327" height="71" fill="white"></rect>
            <use xlink:href="#path-1" fill="black"></use>
        </mask>
    </defs>
    <g id="Page-1" stroke="none" stroke-width="1" fill="none" fill-rule="evenodd">
        <g id="Club99love-admin-dashboard" transform="translate(-1090.000000, -583.000000)">
            <g id="noun_594413_cc" transform="translate(1091.000000, 584.000000)">
                <g id="Shape">
                    <use fill="#CC672B" fill-rule="evenodd" xlink:href="#path-1"></use>
                    <use stroke="#CC672B" mask="url(#mask-2)" stroke-width="2" xlink:href="#path-1"></use>
                </g>
            </g>
        </g>
    </g>
</svg>