<?xml version="1.0" encoding="UTF-8"?>
<svg width="77px" height="63px" viewBox="0 0 77 63" version="1.1" xmlns="http://www.w3.org/2000/svg" xmlns:xlink="http://www.w3.org/1999/xlink">
    <!-- Generator: Sketch 41.2 (35397) - http://www.bohemiancoding.com/sketch -->
    <title>noun_335822_cc</title>
    <desc>Created with Sketch.</desc>
    <defs></defs>
    <g id="Page-1" stroke="none" stroke-width="1" fill="none" fill-rule="evenodd">
        <g id="Club99love-admin-dashboard" transform="translate(-353.000000, -579.000000)" stroke="#CC672B" fill="#CC672B">
            <g id="noun_335822_cc" transform="translate(354.000000, 580.000000)">
                <g id="Group">
                    <path d="M51.7017579,0.221031994 C43.9605991,0.221031994 37.655459,6.52641558 37.655459,14.2673309 L37.655459,23.6315302 C37.655459,28.1293995 39.8220547,32.0960842 43.1240053,34.669214 C34.2825357,38.3407349 27.9382612,47.7038367 27.641984,58.6832667 C27.6248046,59.3135647 27.8625789,59.9241488 28.3014948,60.3768337 C28.7404106,60.8295187 29.3433613,61.0860338 29.9738892,61.0883255 L72.8260758,61.1614833 C73.4581492,61.164061 74.0644113,60.9109639 74.5070323,60.4597322 C74.9496532,60.0085005 75.1910238,59.397475 75.1762698,58.7655686 C74.9136836,47.9536829 68.7824179,38.6414872 60.0691803,34.8429639 C63.4955923,32.2784037 65.7480568,28.2279765 65.7480568,23.6315302 L65.7480568,14.2673309 C65.7480568,6.52641558 59.442912,0.221031994 51.7017579,0.221031994 Z M51.7017579,4.90313164 C56.9300151,4.90313164 61.0659572,9.03929846 61.0659572,14.2673309 L61.0659572,23.6315302 C61.0659572,28.8600309 56.9300151,32.9957295 51.7017579,32.9957295 C46.473496,32.9957295 42.3375586,28.8600309 42.3375586,23.6315302 L42.3375586,14.2673309 C42.3375586,9.03929846 46.473496,4.90313164 51.7017579,4.90313164 Z M21.1858078,14.2673309 C14.7415953,14.2673309 9.4805587,19.5286063 9.4805587,25.97258 L9.4805587,30.6546797 C9.4805587,34.0913118 11.0115224,37.1513163 13.3853563,39.2964455 C5.84984467,42.4638976 0.545495452,49.9634554 0.280964365,58.619253 C0.261270441,59.2511123 0.497927236,59.8640834 0.937118582,60.3187757 C1.37630993,60.7734679 1.98070722,61.0312351 2.61286946,61.0334606 L21.1309392,61.0791813 C21.9751071,61.0926547 22.7611477,60.6505908 23.1881177,59.9222381 C23.6150877,59.1938855 23.6168491,58.2920667 23.1927274,57.5620518 C22.7686057,56.8320369 21.9842979,56.3869059 21.1400838,56.3970817 L5.50260283,56.351361 C6.90659128,48.3178144 13.4568253,42.1049735 21.8167938,42.3507828 C22.178366,42.3788116 22.5415064,42.3224626 22.877582,42.1861789 C28.5211189,41.3573185 32.8910569,36.5213838 32.8910569,30.6546797 L32.8910569,25.97258 C32.8910569,19.5286063 27.6300203,14.2673309 21.1858078,14.2673309 Z M21.1858078,18.9494306 C25.1171234,18.9494306 28.2089573,22.0414892 28.2089573,25.97258 L28.2089573,30.6546797 C28.2089573,34.5862387 25.1171234,37.6778291 21.1858078,37.6778291 C17.2544922,37.6778291 14.1626583,34.5862387 14.1626583,30.6546797 L14.1626583,25.97258 C14.1626583,22.0414892 17.2544922,18.9494306 21.1858078,18.9494306 Z M51.9761009,37.6961184 C61.2235707,38.0145011 68.700631,46.006215 70.0186421,56.4702395 L32.8178991,56.41537 C34.2169386,45.4868812 42.3015893,37.3646257 51.9761009,37.6961184 Z" id="Shape"></path>
                </g>
            </g>
        </g>
    </g>
</svg>