<?xml version="1.0" encoding="UTF-8"?>
<svg width="62px" height="64px" viewBox="0 0 62 64" version="1.1" xmlns="http://www.w3.org/2000/svg" xmlns:xlink="http://www.w3.org/1999/xlink">
    <!-- Generator: Sketch 41.2 (35397) - http://www.bohemiancoding.com/sketch -->
    <title>noun_540950_cc</title>
    <desc>Created with Sketch.</desc>
    <defs></defs>
    <g id="Page-1" stroke="none" stroke-width="1" fill="none" fill-rule="evenodd">
        <g id="Club99love-admin-dashboard" transform="translate(-721.000000, -270.000000)" fill="#CC672B">
            <g id="Group-2" transform="translate(677.000000, 149.000000)">
                <g id="noun_540950_cc" transform="translate(44.000000, 121.500000)">
                    <path d="M61.0583602,15.1700282 L51.822021,1.36584704 C51.2509073,0.512288502 50.290328,0 49.2604762,0 L12.315119,0 C11.2852672,0 10.3246879,0.512288502 9.75357429,1.36584704 L0.517235,15.1700282 C0.180108616,15.6738808 0,16.2659268 0,16.871777 L0,59.8181185 C0,61.5121983 1.37852364,62.8857143 3.07877976,62.8857143 L58.4968155,62.8857143 C60.1970716,62.8857143 61.5755952,61.5121983 61.5755952,59.8181185 L61.5755952,16.871777 C61.5755952,16.2659268 61.3954866,15.6738808 61.0583602,15.1700282 L61.0583602,15.1700282 Z M33.8665774,6.13519164 L47.613329,6.13519164 L52.7441155,13.8041812 L33.8665774,13.8041812 L33.8665774,6.13519164 L33.8665774,6.13519164 Z M13.9630359,6.13519164 L27.7090179,6.13519164 L27.7090179,13.8041812 L8.83147975,13.8041812 L13.9630359,6.13519164 L13.9630359,6.13519164 Z M55.4180357,56.7505226 L6.15755952,56.7505226 L6.15755952,19.9393728 L55.4180357,19.9393728 L55.4180357,56.7505226 L55.4180357,56.7505226 Z M36.9453571,33.743554 L12.315119,33.743554 L12.315119,39.8787456 L36.9453571,39.8787456 L36.9453571,33.743554 L36.9453571,33.743554 Z M27.7090179,44.4801394 L12.315119,44.4801394 L12.315119,50.615331 L27.7090179,50.615331 L27.7090179,44.4801394 L27.7090179,44.4801394 Z" id="Shape"></path>
                </g>
            </g>
        </g>
    </g>
</svg>