<?xml version="1.0" encoding="UTF-8"?>
<svg width="72px" height="72px" viewBox="0 0 72 72" version="1.1" xmlns="http://www.w3.org/2000/svg" xmlns:xlink="http://www.w3.org/1999/xlink">
    <!-- Generator: Sketch 41.2 (35397) - http://www.bohemiancoding.com/sketch -->
    <title>noun_234588_cc</title>
    <desc>Created with Sketch.</desc>
    <defs></defs>
    <g id="Page-1" stroke="none" stroke-width="1" fill="none" fill-rule="evenodd">
        <g id="Club99love-admin-dashboard" transform="translate(-1084.000000, -261.000000)" fill="#C12036">
            <g id="noun_234588_cc" transform="translate(1084.000000, 261.000000)">
                <g id="Group">
                    <path d="M54.6,65.85 C54,65.85 53.55,65.7 52.95,65.4 C51.6,64.5 51.3,62.7 52.2,61.35 L62.85,45.3 L9.15,45.3 L19.8,61.35 C20.7,62.7 20.4,64.5 19.05,65.4 C17.7,66.3 15.9,66 15,64.65 L1.2,43.8 C0.6,42.9 0.6,41.7 1.05,40.8 C1.5,39.9 2.55,39.3 3.6,39.3 L68.25,39.3 C69.3,39.3 70.35,39.9 70.8,40.8 C71.25,41.7 71.25,42.9 70.65,43.8 L57,64.5 C56.55,65.4 55.5,65.85 54.6,65.85 L54.6,65.85 Z" id="Shape"></path>
                    <path d="M31.2,45.15 L9.45,45.15 C7.8,45.15 6.45,43.8 6.45,42.15 L6.45,22.95 C6.45,21.3 7.8,19.95 9.45,19.95 L31.2,19.95 C32.85,19.95 34.2,21.3 34.2,22.95 L34.2,42.3 C34.2,43.8 32.85,45.15 31.2,45.15 L31.2,45.15 Z M12.45,39.3 L28.35,39.3 L28.35,25.95 L12.45,25.95 L12.45,39.3 L12.45,39.3 Z" id="Shape"></path>
                    <path d="M52.95,45.15 L31.2,45.15 C29.55,45.15 28.2,43.8 28.2,42.15 L28.2,22.95 C28.2,21.3 29.55,19.95 31.2,19.95 L52.95,19.95 C54.6,19.95 55.95,21.3 55.95,22.95 L55.95,42.3 C55.95,43.8 54.6,45.15 52.95,45.15 L52.95,45.15 Z M34.2,39.3 L50.1,39.3 L50.1,25.95 L34.2,25.95 L34.2,39.3 L34.2,39.3 Z" id="Shape"></path>
                    <path d="M42.15,25.95 L20.4,25.95 C18.75,25.95 17.4,24.6 17.4,22.95 L17.4,3.75 C17.4,2.1 18.75,0.75 20.4,0.75 L42.15,0.75 C43.8,0.75 45.15,2.1 45.15,3.75 L45.15,23.1 C45,24.6 43.8,25.95 42.15,25.95 L42.15,25.95 Z M23.25,20.1 L39.15,20.1 L39.15,6.6 L23.25,6.6 L23.25,20.1 L23.25,20.1 Z" id="Shape"></path>
                    <path d="M25.95,71.25 C25.2,71.25 24.45,70.95 23.85,70.35 L23.55,70.05 C21.45,67.95 18.75,66.75 15.9,66.75 C13.05,66.75 10.2,67.95 8.25,70.05 L7.95,70.35 C6.75,71.55 4.95,71.55 3.75,70.35 C2.55,69.15 2.55,67.35 3.75,66.15 L4.05,66 C7.2,62.7 11.4,60.9 15.9,60.9 C20.4,60.9 24.6,62.7 27.75,66 L28.05,66.3 C29.25,67.5 29.1,69.3 28.05,70.5 C27.45,70.95 26.7,71.25 25.95,71.25 L25.95,71.25 Z" id="Shape"></path>
                    <path d="M46.05,71.25 C45.3,71.25 44.55,70.95 43.95,70.35 L43.65,70.05 C41.55,67.95 38.85,66.75 36,66.75 C33.15,66.75 30.3,67.95 28.35,70.05 L28.05,70.35 C26.85,71.55 25.05,71.55 23.85,70.35 C22.65,69.15 22.65,67.35 23.85,66.15 L24.15,65.85 C27.3,62.55 31.5,60.75 36,60.75 C40.5,60.75 44.7,62.55 47.85,65.85 L48.15,66.15 C49.35,67.35 49.2,69.15 48.15,70.35 C47.55,70.95 46.8,71.25 46.05,71.25 L46.05,71.25 Z" id="Shape"></path>
                    <path d="M46.05,71.25 C45.3,71.25 44.55,70.95 43.95,70.35 C42.75,69.15 42.75,67.35 43.95,66.15 L44.25,65.85 C47.4,62.55 51.6,60.75 56.1,60.75 C60.6,60.75 64.8,62.55 67.95,65.85 L68.25,66.15 C69.45,67.35 69.3,69.15 68.25,70.35 C67.05,71.55 65.25,71.4 64.05,70.35 L63.75,70.05 C61.65,67.95 58.95,66.75 56.1,66.75 C53.25,66.75 50.4,67.95 48.45,70.05 L48.15,70.35 C47.55,70.95 46.8,71.25 46.05,71.25 L46.05,71.25 Z" id="Shape"></path>
                </g>
            </g>
        </g>
    </g>
</svg>