<?xml version="1.0" encoding="UTF-8"?>
<svg width="56px" height="68px" viewBox="0 0 56 68" version="1.1" xmlns="http://www.w3.org/2000/svg" xmlns:xlink="http://www.w3.org/1999/xlink">
    <!-- Generator: Sketch 41.2 (35397) - http://www.bohemiancoding.com/sketch -->
    <title>noun_677377_cc</title>
    <desc>Created with Sketch.</desc>
    <defs></defs>
    <g id="Page-1" stroke="none" stroke-width="1" fill="none" fill-rule="evenodd">
        <g id="Club99love-admin-dashboard" transform="translate(-728.000000, -583.000000)" fill="#C12036">
            <g id="noun_677377_cc" transform="translate(727.000000, 583.000000)">
                <g id="Group">
                    <rect id="Rectangle-path" x="13.3478261" y="18.5217391" width="12.3478261" height="6.17391304"></rect>
                    <rect id="Rectangle-path" x="13.3478261" y="30.8695652" width="30.8695652" height="6.17391304"></rect>
                    <rect id="Rectangle-path" x="13.3478261" y="43.2173913" width="30.8695652" height="6.17391304"></rect>
                    <path d="M55.67,16.33 L40.2352174,0.895217391 C39.6526506,0.31738076 38.8640005,-0.0047439076 38.0434783,-2.34409111e-13 L8.56304348,-2.34409111e-13 C4.31274775,0.0844650067 0.931142649,3.59029233 1,7.84086957 L1,58.6521739 C0.995256092,59.4726962 1.31738076,60.2613462 1.89521739,60.843913 L8.06913043,67.0178261 C9.2731591,68.214712 11.2177105,68.214712 12.4217391,67.0178261 L16.4347826,63.0047826 L20.4169565,66.9869565 C21.6209852,68.1838424 23.5655366,68.1838424 24.7695652,66.9869565 L28.7826087,63.0047826 L32.7647826,66.9869565 C33.9688113,68.1838424 35.9133626,68.1838424 37.1173913,66.9869565 L41.1304348,63.0047826 L45.1126087,66.9869565 C46.3166374,68.1838424 48.2611887,68.1838424 49.4652174,66.9869565 L55.6391304,60.8130435 C56.2207571,60.2430973 56.5536195,59.4664182 56.5652174,58.6521739 L56.5652174,18.5217391 C56.5699613,17.7012169 56.2478366,16.9125668 55.67,16.33 L55.67,16.33 Z M38.0434783,7.43956522 L49.1256522,18.5217391 L38.0434783,18.5217391 L38.0434783,7.43956522 Z M50.3913043,57.3556522 L47.3043478,60.4426087 L43.3221739,56.4604348 C42.1181452,55.2635489 40.1735939,55.2635489 38.9695652,56.4604348 L34.9565217,60.4734783 L30.9743478,56.4604348 C29.7703192,55.2635489 27.8257678,55.2635489 26.6217391,56.4604348 L22.6086957,60.4734783 L18.6265217,56.4604348 C17.4224931,55.2635489 15.4779417,55.2635489 14.273913,56.4604348 L10.2608696,60.4734783 L7.17391304,57.3865217 L7.17391304,7.99521739 C7.09382935,7.56609042 7.1992056,7.12312001 7.46394227,6.77602082 C7.72867895,6.42892163 8.12801513,6.21015795 8.56304348,6.17391304 L31.8695652,6.17391304 L31.8695652,21.6086957 C31.8695652,23.3135747 33.2516427,24.6956522 34.9565217,24.6956522 L50.3913043,24.6956522 L50.3913043,57.3556522 Z" id="Shape"></path>
                </g>
            </g>
        </g>
    </g>
</svg>