<svg enable-background="new 0 0 35 35" height="35" viewBox="0 0 35 35" width="35" xmlns="http://www.w3.org/2000/svg"><path clip-rule="evenodd" d="m30.5 5h-22c-1.654 0-3 1.346-3 3v2h-1c-1.654 0-3 1.346-3 3v14c0 1.654 1.346 3 3 3h21c1.653 0 3-1.346 3-3h2c1.653 0 3-1.346 3-3v-16c0-1.654-1.346-3-3-3zm-4 22c0 .552-.449 1-1 1h-21c-.552 0-1-.448-1-1v-9h23zm-21-2h4v-2h-4zm21-9h-23v-3c0-.552.448-1 1-1h21c .551 0 1 .448 1 1zm5 8c0 .552-.449 1-1 1h-2v-12c0-1.654-1.347-3-3-3h-18v-2c0-.552.448-1 1-1h22c .551 0 1 .448 1 1z" fill="#c12036" fill-rule="evenodd"/></svg>