<svg enable-background="new 0 0 35 35" height="35" viewBox="0 0 35 35" width="35" xmlns="http://www.w3.org/2000/svg"><path clip-rule="evenodd" d="m28.5 7.671c-1.164.413-2 1.525-2 2.829s.836 2.416 2 2.829v17.171h-6.5v-.5c0-2.481-2.02-4.5-4.5-4.5s-4.5 2.019-4.5 4.5v.5h-6.5v-17.171c1.164-.413 2-1.525 2-2.829s-.836-2.416-2-2.829v-3.171h22zm1 1.829h1v-7h-26v7h1c .553 0 1 .448 1 1s-.447 1-1 1h-1v21h10.5v-2.5c0-1.379 1.121-2.5 2.5-2.5s2.5 1.121 2.5 2.5v2.5h10.5v-21h-1c-.553 0-1-.448-1-1s .448-1 1-1zm-19 2h3v-2h-3zm5 0h4v-2h-4zm6 0h3v-2h-3z" fill="#c12036" fill-rule="evenodd"/></svg>