<svg enable-background="new 0 0 35 35" height="35" viewBox="0 0 35 35" width="35" xmlns="http://www.w3.org/2000/svg"><path clip-rule="evenodd" d="m27.5 25.5c-1.104 0-2-.896-2-2s .896-2 2-2c1.103 0 2 .896 2 2s-.897 2-2 2zm-.513-12.995 1.012 1.995h-2.499v-1.996zm-16.486 12.995c-1.104 0-2-.896-2-2s .896-2 2-2c1.103 0 2 .896 2 2s-.897 2-2 2zm23.167-8.093c-.051-1.611-1.39-2.907-3.027-2.907h-.4l-1.471-2.899c-.344-.679-1.033-1.101-1.798-1.101h-5.472v-1c0-1.103-.897-2-2-2h-14c-1.103 0-2 .897-2 2v2h2.001v-2h14v13h-5.142c-.447-1.721-1.999-3-3.857-3-1.859 0-3.412 1.279-3.858 3h-1.143v-3h-2.001v5h3.143c.446 1.721 1.999 3 3.858 3 1.858 0 3.41-1.279 3.857-3h7.142 2.142c.446 1.721 1.999 3 3.858 3 1.858 0 3.41-1.279 3.857-3h1.127c.598 0 1.159-.26 1.543-.715.38-.448.541-1.037.445-1.616zm-33.168-2.907h8.001v-2h-8.001zm1 4h8.001v-2h-8.001zm29.858 4c-.447-1.721-1.999-3-3.857-3-1.859 0-3.412 1.279-3.858 3h-2.143v-10.002l2 .002v2c0 1.104.896 2 2 2h3.513.487 1.141c.566 0 1.027.448 1.027 1l .816 5z" fill="#c12036" fill-rule="evenodd"/></svg>