<svg height="15" preserveAspectRatio="xMidYMid" viewBox="0 0 10.28 15" width="10.28" xmlns="http://www.w3.org/2000/svg"><path d="m9.893 6.633-6.818-6.267c-.251-.244-.565-.366-.941-.366-.377 0-.691.122-.942.366l-.794.722c-.259.238-.388.526-.388.866 0 .334.129.626.388.877l5.082 4.669-5.083 4.679c-.258.237-.387.526-.387.867 0 .333.129.625.387.876l.795.722c.258.237.572.356.941.356.37 0 .684-.119.942-.356l6.818-6.268c.258-.25.388-.542.388-.876 0-.34-.13-.629-.388-.867z" fill="#979797" fill-rule="evenodd"/></svg>