<svg height="14" preserveAspectRatio="xMidYMid" viewBox="0 0 16 14" width="16" xmlns="http://www.w3.org/2000/svg"><path d="m15.648 7.818-6.212 5.849c-.235.222-.52.333-.857.333s-.622-.111-.858-.333l-.724-.674c-.235-.233-.352-.506-.352-.817 0-.318.117-.587.352-.809l3.642-3.435c-.205.045-.422.068-.639.068h-9c-.838 0-1-.302-1-1.154v-.412c0-.853.162-1.434 1-1.434h8.503l-2.505-2.358c-.235-.234-.353-.506-.353-.818 0-.317.118-.587.353-.808l.724-.675c.228-.227.514-.341.857-.341s.629.114.858.341l6.211 5.85c.235.222.352.491.352.809 0 .311-.117.584-.352.818z" fill="#fff" fill-rule="evenodd"/></svg>