<svg height="15" preserveAspectRatio="xMidYMid" viewBox="0 0 10.25 15" width="10.25" xmlns="http://www.w3.org/2000/svg"><path d="m .386 6.633 6.806-6.267c.25-.244.563-.366.939-.366s.689.122.94.366l.793.722c.258.238.387.526.387.866 0 .334-.129.626-.387.877l-5.073 4.669 5.073 4.679c.258.237.387.526.387.867 0 .333-.129.625-.387.876l-.793.722c-.258.237-.571.356-.94.356-.368 0-.682-.119-.939-.356l-6.806-6.268c-.258-.25-.387-.542-.387-.876 0-.34.129-.629.387-.867z" fill="#979797" fill-rule="evenodd"/></svg>