<svg width="19" height="17" enable-background="new 0 0 19 17" viewBox="0 0 19 17" xmlns="http://www.w3.org/2000/svg"><g enable-background="new"><path d="m18.5 12c-.3 0-.5.2-.5.5v1.5c0 1.1-.9 2-1.9 2h-13.2c-1.1 0-1.9-.9-1.9-2v-1.6c0-.2-.2-.4-.5-.4s-.5.2-.5.5v1.5c0 1.6 1.3 3 2.9 3h13.2c1.6 0 2.9-1.3 2.9-3v-1.6c0-.2-.2-.4-.5-.4zm-15.1 2h12.2c.3 0 .5-.2.5-.5s-.2-.5-.5-.5h-12.2c-.3 0-.5.2-.5.5s.3.5.5.5zm5.3-3.3c.2.2.5.3.8.3s.6-.1.8-.3l4.1-3.7c.2-.2.2-.5 0-.7s-.5-.2-.7 0l-3.7 3.4v-9.2c0-.3-.2-.5-.5-.5s-.5.2-.5.5v9.2l-3.7-3.4c-.2-.2-.5-.2-.7 0s-.2.5 0 .7z" fill="#009cff"/></g></svg>
