<svg height="71" viewBox="0 0 75 71" width="75" xmlns="http://www.w3.org/2000/svg" xmlns:xlink="http://www.w3.org/1999/xlink"><defs><path id="a" d="m62.2325 2.36052632c-.9125-.3631579-2.0075.18157894-2.3725 1.08947368v.36315789c-.1825.90789474.365 1.63421053 1.095 1.99736843 4.745 1.81578947 7.665 4.35789478 7.665 6.89999998 0 3.9947369-7.8475 8.5342105-19.345 9.0789474h-2.0075c-.9125 0-1.825 0-2.7375-.181579-7.4825-.3631579-13.505-2.5421052-16.425-5.2657894-1.2775-1.2710527-2.0075-2.5421053-2.0075-3.631579l0 0c0-4.35789472 8.76-9.07894735 21.17-9.07894735.9125 0 1.6425-.72631579 1.825-1.45263158v-.3631579c0-1.08947368-.9125-1.81578947-1.825-1.81578947-13.87 0-24.82 5.62894737-24.82 12.7105263l0 0c-12.41.7263158-21.9 5.9921053-21.9 12.7105263v21.7894737c0 6.7184211 9.855 12.1657895 22.8125 12.7105263 2.92 5.2657895 12.41 9.0789474 23.9075 9.0789474 13.87 0 24.82-5.6289474 24.82-12.7105263v-43.5789474c.1825-4.17631577-3.4675-7.98947367-9.855-10.34999998zm-39.6025 14.16315788v17.9763158c-10.95-.7263158-18.25-5.0842105-18.25-8.8973684 0-4.1763158 7.3-8.5342105 18.25-9.0789474zm-18.25 15.6157895c3.8325 3.268421 10.4025 5.4473684 18.25 5.9921052v7.2631579c-10.95-.7263157-18.25-5.0842105-18.25-8.8973684zm18.25 23.968421c-10.95-.7263158-18.25-5.0842105-18.25-8.8973684v-4.1763158c3.8325 3.2684211 10.4025 5.4473684 18.25 5.9921053zm45.99.181579c0 4.3578947-8.76 9.0789474-21.17 9.0789474-9.125 0-16.06-2.5421053-19.345-5.4473685l0 0c-1.2775-1.0894737-1.825-2.3605263-1.825-3.6315789v-4.1763158c1.6425 1.4526316 3.8325 2.7236842 6.57 3.6315789l0 0c2.19.7263158 4.745 1.4526316 7.3 1.8157895 2.3725.3631579 4.745.5447369 7.3.5447369 9.125 0 16.79-2.3605264 21.17-5.9921053zm-42.34-10.8947369v-4.1763157c1.6425 1.4526315 3.8325 2.7236842 6.57 3.6315789l0 0c .5475.1815789 1.095.3631579 1.6425.5447368 1.825.5447369 3.65.9078948 5.6575 1.2710527l0 0c2.0075.3631579 4.38.5447368 6.57.5447368h.73c.9125 0 2.0075 0 2.92-.1815789 3.65-.181579 7.1175-.7263158 10.0375-1.6342106 3.285-1.0894736 6.205-2.5421052 8.2125-4.1763157v4.1763157c0 4.3578948-8.76 9.0789474-21.17 9.0789474h-1.2775l0 0c-2.19 0-4.38-.3631579-6.3875-.5447368l0 0c-5.2925-.9078948-9.3075-2.7236842-11.68-4.9026316l0 0c-1.2775-1.2710526-1.825-2.5421053-1.825-3.631579zm0-10.8947368v-4.1763158c1.6425 1.4526316 3.8325 2.7236842 6.57 3.631579.5475.1815789 1.095.3631579 1.6425.5447368 1.825.5447368 3.65.9078947 5.6575 1.2710526s4.38.5447369 6.57.5447369h.73c.9125 0 2.0075 0 2.92-.181579l0 0c3.65-.1815789 7.1175-.7263158 10.0375-1.6342105 3.285-1.0894737 6.205-2.5421053 8.2125-4.1763158v4.1763158c0 3.9947368-7.3 8.3526316-18.25 8.8973684-.9125.181579-2.0075.181579-2.92.181579h-.73-.73c-2.19 0-4.38-.3631579-6.3875-.5447369-5.2925-.9078947-9.3075-2.7236842-11.68-4.9026316l0 0c-1.095-1.2710526-1.6425-2.5421052-1.6425-3.6315789zm42.34-10.8947368c0 3.9947368-7.3 8.3526315-18.25 8.8973684-.9125.1815789-2.0075.1815789-2.92.1815789h-.73-.73c-2.19 0-4.38-.3631579-6.3875-.5447368-8.2125-1.4526316-13.505-5.0842105-13.505-8.3526316v-4.1763158c2.0075 1.6342105 4.9275 3.0868421 8.2125 4.1763158 3.65 1.0894737 7.665 1.8157895 12.2275 1.8157895h.73c.9125 0 2.0075 0 2.92-.181579l0 0c3.65-.1815789 7.1175-.7263158 10.0375-1.6342105 3.285-1.0894737 6.205-2.5421053 8.2125-4.1763158v3.9947369z"/><mask id="b" height="71" width="73.5465327" x="-1" y="-1"><path d="m-.4525-1h73.5465327v71h-73.5465327z" fill="#fff"/><use xlink:href="#a"/></mask></defs><g fill="none" fill-rule="evenodd" transform="translate(1 1)"><use fill="#cc672b" fill-rule="evenodd" xlink:href="#a"/><use mask="url(#b)" stroke="#cc672b" stroke-width="2" xlink:href="#a"/></g></svg>