<svg height="63" viewBox="0 0 77 63" width="77" xmlns="http://www.w3.org/2000/svg"><path d="m51.7017579.22103199c-7.7411588 0-14.0462989 6.30538359-14.0462989 14.04629891v9.3641993c0 4.4978693 2.1665957 8.464554 5.4685463 11.0376838-8.8414696 3.6715209-15.1857441 13.0346227-15.4820213 24.0140527-.0171794.630298.2205949 1.2408821.6595108 1.693567.4389158.452685 1.0418665.7092001 1.6723944.7114918l42.8521866.0731578c.6320734.0025777 1.2383355-.2505194 1.6809565-.7017511.4426209-.4512317.6839915-1.0622572.6692375-1.6941636-.2625862-10.8118857-6.3938519-20.1240814-15.1070895-23.9226047 3.426412-2.5645602 5.6788765-6.6149874 5.6788765-11.2114337v-9.3641993c0-7.74091532-6.3051448-14.04629891-14.0462989-14.04629891zm0 4.68209965c5.2282572 0 9.3641993 4.13616682 9.3641993 9.36419926v9.3641993c0 5.2285007-4.1359421 9.3641993-9.3641993 9.3641993-5.2282619 0-9.3641993-4.1356986-9.3641993-9.3641993v-9.3641993c0-5.22803244 4.1359374-9.36419926 9.3641993-9.36419926zm-30.5159501 9.36419926c-6.4442125 0-11.7052491 5.2612754-11.7052491 11.7052491v4.6820997c0 3.4366321 1.5309637 6.4966366 3.9047976 8.6417658-7.53551163 3.1674521-12.83986085 10.6670099-13.10439194 19.3228075-.01969392.6318593.21696287 1.2448304.65615422 1.6995227.43919135.4546922 1.04358864.7124594 1.67575088.7146849l18.51806974.0457207c.8441679.0134734 1.6302085-.4285905 2.0571785-1.1569432.42697-.7283526.4287314-1.6301714.0046097-2.3601863s-1.2084295-1.1751459-2.0526436-1.1649701l-15.63748097-.0457207c1.40398845-8.0335466 7.95422247-14.2463875 16.31419097-14.0005782.3615722.0280288.7247126-.0283202 1.0607882-.1646039 5.6435369-.8288604 10.0134749-5.6647951 10.0134749-11.5314992v-4.6820997c0-6.4439737-5.2610366-11.7052491-11.7052491-11.7052491zm0 4.6820997c3.9313156 0 7.0231495 3.0920586 7.0231495 7.0231494v4.6820997c0 3.931559-3.0918339 7.0231494-7.0231495 7.0231494s-7.0231495-3.0915904-7.0231495-7.0231494v-4.6820997c0-3.9310908 3.0918339-7.0231494 7.0231495-7.0231494zm30.7902931 18.7466878c9.2474698.3183827 16.7245301 8.3100966 18.0425412 18.7741211l-37.200743-.0548695c1.3990395-10.9284888 9.4836902-19.0507443 19.1582018-18.7192516z" fill="#cc672b" fill-rule="evenodd" stroke="#cc672b" transform="translate(1 1)"/></svg>