<?xml version="1.0" encoding="UTF-8" standalone="no"?>
<svg
   xmlns:dc="http://purl.org/dc/elements/1.1/"
   xmlns:cc="http://creativecommons.org/ns#"
   xmlns:rdf="http://www.w3.org/1999/02/22-rdf-syntax-ns#"
   xmlns:svg="http://www.w3.org/2000/svg"
   xmlns="http://www.w3.org/2000/svg"
   xmlns:sodipodi="http://sodipodi.sourceforge.net/DTD/sodipodi-0.dtd"
   xmlns:inkscape="http://www.inkscape.org/namespaces/inkscape"
   enable-background="new 0 0 21.764 21.764"
   viewBox="0 0 21.764 21.764"
   version="1.1"
   id="svg8"
   sodipodi:docname="ordered-ico.svg"
   inkscape:version="0.92.1 r15371">
  <metadata
     id="metadata14">
    <rdf:RDF>
      <cc:Work
         rdf:about="">
        <dc:format>image/svg+xml</dc:format>
        <dc:type
           rdf:resource="http://purl.org/dc/dcmitype/StillImage" />
        <dc:title></dc:title>
      </cc:Work>
    </rdf:RDF>
  </metadata>
  <defs
     id="defs12" />
  <sodipodi:namedview
     pagecolor="#ffffff"
     bordercolor="#666666"
     borderopacity="1"
     objecttolerance="10"
     gridtolerance="10"
     guidetolerance="10"
     inkscape:pageopacity="0"
     inkscape:pageshadow="2"
     inkscape:window-width="1920"
     inkscape:window-height="1017"
     id="namedview10"
     showgrid="false"
     inkscape:pagecheckerboard="true"
     inkscape:zoom="39.055321"
     inkscape:cx="10.523534"
     inkscape:cy="10.882"
     inkscape:window-x="-8"
     inkscape:window-y="-8"
     inkscape:window-maximized="1"
     inkscape:current-layer="svg8" />
  <path
     style="fill:#ffffff"
     inkscape:connector-curvature="0"
     id="path2-1"
     d="m 10.882001,20.764 c -5.4489998,0 -9.88200128,-4.433 -9.88200128,-9.882 0,-5.4490002 4.43300148,-9.88200018 9.88200128,-9.88200018 5.448999,0 9.881999,4.43299998 9.881999,9.88200018 0,5.449 -4.433,9.882 -9.881999,9.882 z"
     sodipodi:nodetypes="sssss" />
  <g
     enable-background="new"
     id="g6">
    <path
       d="m10.882 21.764c-6 0-10.882-4.882-10.882-10.882s4.882-10.882 10.882-10.882 10.882 4.881 10.882 10.882-4.882 10.882-10.882 10.882zm0-20.764c-5.449 0-9.882 4.433-9.882 9.882s4.433 9.882 9.882 9.882 9.882-4.433 9.882-9.882-4.433-9.882-9.882-9.882z"
       fill="#e3e3e3"
       id="path2" />
    <circle
       clip-rule="evenodd"
       cx="10.882"
       cy="10.882"
       fill="#48db79"
       fill-rule="evenodd"
       r="7"
       id="circle4" />
  </g>
</svg>
