<svg height="64" viewBox="0 0 62 64" width="62" xmlns="http://www.w3.org/2000/svg"><path d="m61.0583602 15.1700282-9.2363392-13.80418116c-.5711137-.85355854-1.531693-1.36584704-2.5615448-1.36584704h-36.9453572c-1.0298518 0-1.9904311.5122885-2.56154471 1.36584704l-9.23633929 13.80418116c-.33712638.5038526-.517235 1.0958986-.517235 1.7017488v42.9463415c0 1.6940798 1.37852364 3.0675958 3.07877976 3.0675958h55.41803574c1.7002561 0 3.0787797-1.373516 3.0787797-3.0675958v-42.9463415c0-.6058502-.1801086-1.1978962-.517235-1.7017488zm-27.1917828-9.03483656h13.7467516l5.1307865 7.66898956h-18.8775381zm-19.9035415 0h13.745982v7.66898956h-18.87753815zm41.4549998 50.61533096h-49.26047618v-36.8111498h49.26047618zm-18.4726786-23.0069686h-24.6302381v6.1351916h24.6302381zm-9.2363392 10.7365854h-15.3938989v6.1351916h15.3938989z" fill="#cc672b" fill-rule="evenodd" transform="translate(0 .5)"/></svg>