<svg height="72" viewBox="0 0 72 72" width="72" xmlns="http://www.w3.org/2000/svg"><g fill="#c12036" fill-rule="evenodd" transform=""><path d="m54.6 65.85c-.6 0-1.05-.15-1.65-.45-1.35-.9-1.65-2.7-.75-4.05l10.65-16.05h-53.7l10.65 16.05c.9 1.35.6 3.15-.75 4.05s-3.15.6-4.05-.75l-13.8-20.85c-.6-.9-.6-2.1-.15-3s1.5-1.5 2.55-1.5h64.65c1.05 0 2.1.6 2.55 1.5s.45 2.1-.15 3l-13.65 20.7c-.45.9-1.5 1.35-2.4 1.35z"/><path d="m31.2 45.15h-21.75c-1.65 0-3-1.35-3-3v-19.2c0-1.65 1.35-3 3-3h21.75c1.65 0 3 1.35 3 3v19.35c0 1.5-1.35 2.85-3 2.85zm-18.75-5.85h15.9v-13.35h-15.9z"/><path d="m52.95 45.15h-21.75c-1.65 0-3-1.35-3-3v-19.2c0-1.65 1.35-3 3-3h21.75c1.65 0 3 1.35 3 3v19.35c0 1.5-1.35 2.85-3 2.85zm-18.75-5.85h15.9v-13.35h-15.9z"/><path d="m42.15 25.95h-21.75c-1.65 0-3-1.35-3-3v-19.2c0-1.65 1.35-3 3-3h21.75c1.65 0 3 1.35 3 3v19.35c-.15 1.5-1.35 2.85-3 2.85zm-18.9-5.85h15.9v-13.5h-15.9z"/><path d="m25.95 71.25c-.75 0-1.5-.3-2.1-.9l-.3-.3c-2.1-2.1-4.8-3.3-7.65-3.3s-5.7 1.2-7.65 3.3l-.3.3c-1.2 1.2-3 1.2-4.2 0s-1.2-3 0-4.2l.3-.15c3.15-3.3 7.35-5.1 11.85-5.1s8.7 1.8 11.85 5.1l.3.3c1.2 1.2 1.05 3 0 4.2-.6.45-1.35.75-2.1.75z"/><path d="m46.05 71.25c-.75 0-1.5-.3-2.1-.9l-.3-.3c-2.1-2.1-4.8-3.3-7.65-3.3s-5.7 1.2-7.65 3.3l-.3.3c-1.2 1.2-3 1.2-4.2 0s-1.2-3 0-4.2l.3-.3c3.15-3.3 7.35-5.1 11.85-5.1s8.7 1.8 11.85 5.1l.3.3c1.2 1.2 1.05 3 0 4.2-.6.6-1.35.9-2.1.9z"/><path d="m46.05 71.25c-.75 0-1.5-.3-2.1-.9-1.2-1.2-1.2-3 0-4.2l.3-.3c3.15-3.3 7.35-5.1 11.85-5.1s8.7 1.8 11.85 5.1l.3.3c1.2 1.2 1.05 3 0 4.2-1.2 1.2-3 1.05-4.2 0l-.3-.3c-2.1-2.1-4.8-3.3-7.65-3.3s-5.7 1.2-7.65 3.3l-.3.3c-.6.6-1.35.9-2.1.9z"/></g></svg>