<svg height="33" preserveAspectRatio="xMidYMid" viewBox="0 0 47 33" width="47" xmlns="http://www.w3.org/2000/svg"><path d="m22 24c .791 0 1 .206 1 1s-.209 1-1 1h-15c-.791 0-1-.206-1-1s .209-1 1-1zm6 0c-.791 0-1 .206-1 1s .209 1 1 1h3c .791 0 1-.206 1-1s-.209-1-1-1zm19 3.81c0 2.862-2.319 5.19-5.169 5.19h-36.662c-2.85 0-5.169-2.328-5.169-5.19v-22.62c0-2.862 2.319-5.19 5.169-5.19h36.662c2.85 0 5.169 2.328 5.169 5.19zm-3-17.81h-41v7h28c .791 0 1 .206 1 1s-.209 1-1 1h-28v9c0 1.276.729 2 2 2h37c1.271 0 2-.724 2-2zm-41-3h41v-2c0-1.276-.729-2-2-2h-37c-1.271 0-2 .724-2 2z" fill="#c12036" fill-rule="evenodd"/></svg>