<svg height="68" viewBox="0 0 56 68" width="56" xmlns="http://www.w3.org/2000/svg"><g fill="#c12036" fill-rule="evenodd" transform="translate(-1)"><path d="m13.3478261 18.5217391h12.3478261v6.17391304h-12.3478261z"/><path d="m13.3478261 30.8695652h30.8695652v6.17391304h-30.8695652z"/><path d="m13.3478261 43.2173913h30.8695652v6.17391304h-30.8695652z"/><path d="m55.67 16.33-15.4347826-15.43478261c-.5825668-.57783663-1.3712169-.8999613-2.1917391-.89521739h-29.48043482c-4.25029573.08446501-7.63190083 3.59029233-7.56304348 7.84086957v50.81130433c-.00474391.8205223.31738076 1.6091723.89521739 2.1917391l6.17391304 6.1739131c1.20402867 1.1968859 3.14858007 1.1968859 4.35260867 0l4.0130435-4.0130435 3.9821739 3.9821739c1.2040287 1.1968859 3.1485801 1.1968859 4.3526087 0l4.0130435-3.9821739 3.9821739 3.9821739c1.2040287 1.1968859 3.14858 1.1968859 4.3526087 0l4.0130435-3.9821739 3.9821739 3.9821739c1.2040287 1.1968859 3.14858 1.1968859 4.3526087 0l6.173913-6.173913c.5816267-.5699462.9144891-1.3466253.926087-2.1608696v-40.1304348c.0047439-.8205222-.3173808-1.6091723-.8952174-2.1917391zm-17.6265217-8.89043478 11.0821739 11.08217388h-11.0821739zm12.347826 49.91608698-3.0869565 3.0869565-3.9821739-3.9821739c-1.2040287-1.1968859-3.14858-1.1968859-4.3526087 0l-4.0130435 4.0130435-3.9821739-4.0130435c-1.2040286-1.1968859-3.14858-1.1968859-4.3526087 0l-4.0130434 4.0130435-3.982174-4.0130435c-1.2040286-1.1968859-3.14858-1.1968859-4.3526087 0l-4.0130434 4.0130435-3.08695656-3.0869566v-49.39130431c-.08008369-.42912697.02529256-.87209738.29002923-1.21919657.26473668-.34709919.66407286-.56586287 1.09910121-.60210778h23.30652172v15.43478266c0 1.704879 1.3820775 3.0869565 3.0869565 3.0869565h15.4347826z"/></g></svg>