<?xml version="1.0" encoding="utf-8"?>
<!-- Generator: Adobe Illustrator 16.0.0, SVG Export Plug-In . SVG Version: 6.00 Build 0)  -->
<!DOCTYPE svg PUBLIC "-//W3C//DTD SVG 1.1//EN" "http://www.w3.org/Graphics/SVG/1.1/DTD/svg11.dtd">
<svg version="1.1" id="Layer_1" xmlns="http://www.w3.org/2000/svg" xmlns:xlink="http://www.w3.org/1999/xlink" x="0px" y="0px"
	 width="464px" height="298px" viewBox="0 0 464 298" enable-background="new 0 0 464 298" xml:space="preserve">
<g>
	<text class="clr-fill" transform="matrix(1 0 0 1 256.6091 144.7009)" fill="#F76D6D" font-family="'NovelSansPro-SemiBold'" font-size="42">  Jon</text>
</g>
<g>
	<text class="clr-fill" transform="matrix(1 0 0 1 246.6101 192.0999)" fill="#F76D6D" font-family="'NovelSansPro-SemiBold'" font-size="30">DeMersseman</text>
</g>
<path class="clr-fill-inv" fill="#FFEDE1" d="M272.959,61.189L12.907,61.063l129.917,221.43l27.317-46.551l0.075,0.232L272.959,61.189z M29.498,71.07
	l226.859,0.111L142.833,264.155L29.498,71.07z"/>
<path fill="#142B38" d="M210.197,79.127c0.347-0.076,0.803,0.369,1.042,0.609c0.006-0.223-0.294-0.371-0.378-0.553
	c-0.114-0.248-0.037-0.346-0.048-0.605c-0.02-0.471-0.268-0.301-0.541-0.359c-0.438-0.098-0.459-0.605-0.74-0.918
	c-0.149-0.166-0.293-0.158-0.436-0.279c-0.18-0.154-0.255-0.438-0.397-0.633c-0.265-0.361-0.616-0.602-1.016-0.693
	c-0.195-0.043-0.393-0.02-0.555-0.182c0.069-0.293,0.484-0.797,0.386-1.111c-0.06-0.193-0.525-0.256-0.646-0.361
	c-0.39-0.344-0.382-1.197-0.655-1.654c-0.284-0.479-0.564-0.861-0.738-1.414c-0.163-0.523,1.247-1.563,0.939-1.996
	c-0.351-0.494-0.903-0.514-1.396-0.676c-0.22,0.035-0.369-0.064-0.449-0.299c-0.137-0.334-0.271-0.672-0.396-1.012
	c-0.188-0.559-0.399-1.102-0.594-1.654c-0.267-0.756-0.16-1.57-0.462-2.32c-0.258-0.639-0.35-1.332-0.554-1.998
	c-0.141-0.455-0.06-1.186-0.288-1.566c-0.479-0.039-1.006,0.561-1.479,0.324c0.007-0.336-0.174-0.514-0.307-0.787
	c-0.171-0.344-0.202-0.705-0.352-1.061c-0.191-0.467-0.535-0.912-0.813-1.309c-0.152-0.158-0.195-0.219-0.212-0.414
	c-0.009-0.098-0.01-0.191-0.025-0.289c-0.033-0.193-0.098-0.379-0.169-0.559c-0.021-0.047-0.042-0.094-0.063-0.143
	c-0.01-0.064-0.004-0.133-0.017-0.197c-0.036-0.102-0.105-0.199-0.188-0.293c-0.062-0.145-0.12-0.291-0.159-0.445
	c-0.098-0.391,0.012-0.787-0.148-1.174c-0.039-0.094-0.094-0.166-0.112-0.27c-0.02-0.107,0.027-0.219-0.002-0.33
	c-0.207,0.436-0.358,0.9-0.566,1.338c-0.033,0.068-0.045,0.182-0.12,0.221c-0.116,0.057-0.061,0.012-0.141-0.063
	c-0.031-0.082-0.08-0.129-0.168-0.143c-0.047-0.133-0.109-0.256-0.21-0.359c-0.245-0.379-0.495-0.754-0.747-1.127
	c-0.076-0.111-0.121-0.215-0.166-0.318c0.02-0.209,0.101-0.428,0.14-0.602c0.059-0.256,0.081-0.492,0.092-0.756
	c0.022-0.541,0.332-1.816-0.421-1.855c-0.093-0.008-0.212,0.035-0.328,0.07c-0.133-0.188-0.274-0.367-0.391-0.52
	c-0.197-0.262-0.528-0.43-0.687-0.717c-0.298-0.545-0.096-1.182-0.739-1.32c-0.056-0.012-1.707,0.48-1.779,0.473
	c-0.073-0.07-0.157-0.125-0.269-0.135c-0.29-0.023-0.557,0.016-0.844-0.039c-0.257-0.049-0.435,0.029-0.649,0.186
	c-0.226,0.164-0.363,0.818-0.589,0.871c-0.041-0.088-0.079-0.221-0.138-0.293c-0.083-0.105-0.209-0.135-0.289-0.248
	c-0.296-0.424-0.055-1.246-0.275-1.748c-0.188-0.428-0.517-0.797-0.819-1.152c-0.78-0.914-1.683-1.865-2.631-2.627
	c-0.819-0.566-1.705-1.006-2.658-1.32c-0.642-0.279-1.263-0.592-1.865-0.941c-1.113-0.527-2.647-0.631-3.668-1.32
	c-1.271-0.859-1.803-2.486-3.004-3.455c-0.831-0.672-1.87-1.158-2.752-1.758c-0.687-0.553-1.425-1.031-2.216-1.438
	c-0.745-0.281-3.528,1.488-4.307,1.307c-0.834-0.229,0.41-0.416-0.463-0.463c-1.865-0.096-3.813-0.277-5.656-0.578
	c-1.99-0.324-3.92-0.898-5.929-1.141c-1.069-0.102-2.143-0.186-3.216-0.254c-0.715-0.129-1.409-0.322-2.084-0.582
	c-0.925-0.211-3.924-2.1-4.859-2.094c-1.021,0.004-2.371-0.227-3.375-0.004c-0.846,0.188-1.565,0.766-2.439,0.99
	c-2.304,0.588-4.901,0.242-7.257,0.5c-0.661,0.072-1.283,0.271-1.934,0.379c-0.903,0.146-1.884,0.047-2.796,0.041
	c-0.847-0.008-1.851-0.119-2.67,0.174c-0.572,0.205-1.033,0.652-1.512,1c-1.985,1.439-4.232,2.09-6.454,3.109
	c-0.697,0.32-1.397,0.662-2.087,0.998c-0.966,0.473-1.178,0.635-1.707,1.43c-1.157,1.734-3.521,2.029-5.269,2.91
	c-0.446,0.225-0.847,0.529-1.214,0.857c-0.604,0.537-1.47,1.15-1.79,1.887c-0.227,0.52-0.162,0.93-0.819,1.133
	c-0.438-0.094-0.857-0.111-1.279-0.111l0.084-0.123c-0.015-0.004-0.03-0.006-0.046-0.01c-0.53-0.053-1.063-0.074-1.596-0.063
	c-0.939,0.02-1.865-0.004-2.613,0.592c-0.889,0.449-1.458,1.135-1.818,1.947c-0.041-0.01-0.079-0.025-0.122-0.031
	c-0.133,0.299-0.203,0.723-0.285,1c-0.086,0.289-0.136,0.57-0.175,0.852c-0.32,0.971-0.842,1.973-1.64,2.578
	c-0.182,0.137-0.381,0.25-0.575,0.369c-0.17-0.238-0.286-0.5-0.556-0.619c-0.181-0.078-0.524-0.08-0.792-0.053
	c-0.147,0.143-0.24,0.373-0.313,0.602c-0.1,0.303-0.112,0.627-0.115,0.949c0,0.045,0,0.084,0.002,0.125
	c-0.201,0.113-0.397,0.234-0.588,0.363c-0.079-0.08-0.166-0.146-0.277-0.135c-0.178,0.021-0.213,0.166-0.259,0.324
	c-0.028,0.096-0.029,0.197-0.061,0.277c-0.038,0.033-0.085,0.059-0.121,0.094c-0.008,0.006-0.014,0.012-0.02,0.018
	c-0.076,0.014-0.167-0.004-0.264-0.033c-0.125,0.178-0.229,0.365-0.299,0.555c-0.227,0.217-0.431,0.445-0.562,0.73
	c-0.235,0.514-0.156,1.104-0.377,1.625c-0.395,0.932-1.016,1.93-1.667,2.768c-0.054,0.047-0.115,0.082-0.16,0.133
	c-0.021,0.053-0.043,0.104-0.064,0.156c-0.025,0.029-0.051,0.066-0.075,0.096c-0.619,0.736-1.148,1.48-1.733,2.232
	c-0.422,0.541-1.193,0.777-1.558,1.342c-0.165,0.258-0.217,0.596-0.166,0.902c-0.025-0.002-0.051-0.008-0.075-0.006
	c-0.229,0.381-0.149,1.111-0.289,1.566c-0.205,0.666-0.299,1.359-0.555,1.998c-0.006,0.01,0.003,0.023-0.002,0.035
	c-0.449,0.615-0.306,1.381-0.304,2.107c0.006,1.555,0.006,2.861-1,4.137c-0.595,0.756-1.316,1.396-2.01,2.086
	c-0.802,0.799-1.711,1.061-1.771,2.221c-0.063,1.256,0.141,2.371-0.438,3.521c-0.081,0.037-0.164,0.078-0.248,0.17
	c-0.283,0.313-0.304,0.822-0.742,0.918c-0.272,0.061-0.521-0.111-0.541,0.361c-0.011,0.26,0.067,0.355-0.048,0.604
	c-0.085,0.184-0.384,0.33-0.378,0.553c0.121-0.121,0.298-0.293,0.487-0.426l1.45-2.139c-0.018,0.031-0.026,0.063-0.043,0.094
	c-0.404,0.727-0.863,1.361-1.354,2.016c0.169-0.111,0.347-0.188,0.501-0.154c0.263,0.059,0.188,0.613,0.146,0.869
	c0.111-0.127,0.512-0.52,0.672-0.316c0.126,0.16-0.016,0.889-0.066,1.092c-0.063,0.256-0.178,0.488-0.261,0.734
	c-0.059,0.176-0.104,0.354-0.145,0.535c-0.091,0.418-0.245,0.781-0.37,1.186c-0.217,0.711-0.177,1.07,0.002,1.785
	c0.059,0.234,0.127,0.459,0.154,0.699c0.038,0.332,2.057,2.658,1.988,2.988c-0.121,0.6-0.398,1.143-0.441,1.764
	c-0.066,0.969,0.198,1.953,0.262,2.918c0.067,1.074,0.046,2.162,0.292,3.217c0.245,1.047,0.806,1.59,1.271,2.488
	c0.711,1.375-0.043,2.58-0.14,3.998c-0.047,0.686-0.129,1.355-0.351,2.01c-0.305,0.898-0.805,1.709-0.893,2.666
	c-0.085,0.934-0.064,1.969-0.02,2.902c0.038,0.818,0.793,0.604,1.004,1.313c0.227,0.762,0.009,1.955,0.009,2.729
	c-0.001,1.137-0.177,2.385,0.044,3.502c0.068,0.346,0.182,0.67,0.183,1.027c-0.001,0.295-0.097,0.555-0.145,0.842
	c-0.095,0.559-0.12,0.883,0.267,1.33c0.349,0.406,0.88,0.625,0.945,1.215c0.493,0.275,1.287-0.455,1.813-0.455
	c0.745,0,0.714,1.49,1.068,2.043c0.438,0.684,1.118,0.957,1.284,1.785c0.124,0.615-0.067,2.324,1.186,1.809
	c0.5-0.203,0.592-0.816,0.832-1.275c0.79,6.877,1.938,14.037,3.069,19.371l0.389,1.847c1.595,7.602,3.242,15.455,7.143,22.615
	c1.2,2.205,2.604,4.289,4.103,6.271c0.021,0.139,0.047,0.273,0.067,0.418c0.087,0.607,0.046,1.203,0.083,1.811
	c0.312,0.027,1.298-0.188,1.635,0.027c0.023,0.027,0.047,0.059,0.072,0.088c-0.085,0.346,0.038,0.697,0.106,1.033
	c0.167,0.809,0.154,1.635,0.243,2.455c0.033,0.412,0.088,0.82,0.165,1.229c0.112,0.361,0.226,0.725,0.34,1.086
	c0.073,0.455,0.097,0.914,0.069,1.375c-0.06,0.225-0.052,0.441,0.024,0.648c0.348-0.049,0.682-0.127,1.03-0.146
	c0.116,0.189,0.228,0.648,0.261,0.855c0.063,0.396-0.097,0.779-0.207,1.154c-0.188,0.639-0.287,1.059-0.069,1.715
	c0.114,0.342,0.262,0.578,0.442,0.838c-0.171,4.486-2.527,8.643-2.77,11.621c-0.373,4.611-0.43,5.32,0.028,6.279
	c0.541,1.133,1.559,1.627,2.167,1.924l0.136,0.066c0.696,0.414,1.414,0.805,2.131,1.193c0.368,0.199,0.736,0.396,1.103,0.602
	c7.923,4.42,17.106,9.611,25.828,15.301c1.662,1.086,3.62,2.389,5.524,3.807c0.157,0.121,0.396,0.344,0.672,0.598
	c1.859,1.689,3.122,2.758,4.697,2.76c0.111,0,0.223-0.006,0.336-0.016c1.547-0.146,2.828-1.258,4.753-3.072
	c0.354-0.332,0.657-0.629,0.85-0.773c2.025-1.473,4.149-2.857,5.773-3.902c8.407-5.406,17.221-10.402,25.493-14.996l0.858-0.467
	c0.6-0.326,1.197-0.65,1.755-0.98l0.146-0.074c0.563-0.279,1.507-0.746,2.05-1.771c0.521-0.984,0.475-1.367-0.11-6.035
	c-0.393-3.125-0.979-7.814-1.284-12.404c0.086-0.143,0.166-0.289,0.232-0.475c0.239-0.646,0.155-1.072-0.012-1.715
	c-0.098-0.379-0.244-0.766-0.166-1.162c0.04-0.205,0.167-0.66,0.288-0.844c0.351,0.027,0.68,0.119,1.025,0.18
	c0.084-0.207,0.1-0.422,0.048-0.646c-0.01-0.461,0.027-0.92,0.115-1.371c0.127-0.359,0.252-0.717,0.377-1.074
	c0.092-0.404,0.16-0.814,0.207-1.225c0.116-0.816,0.134-1.645,0.328-2.445c0.083-0.346,0.229-0.705,0.141-1.064
	c0.252-0.305,1.375-0.008,1.713-0.023c0.058-0.605,0.037-1.199,0.146-1.809c0.094-0.52,0.191-1.031,0.299-1.541
	c2.151-2.934,4.039-6.141,5.25-9.73c2.599-7.713,3.938-16.096,4.815-22.607c0.675-5,1.257-10.986,1.634-16.986h0.681l0.002-2.543
	c-0.001,0.172,0.496,0.305,0.831-0.125c0.626-0.801,0.31-2.648,1.433-2.887c0.265-0.055,0.513,0.063,0.789-0.031
	c0.438-0.152,0.63-0.484,0.794-0.881c0.223-0.537,0.312-1.119,0.496-1.668c0.241-0.713,0.4-0.736,1.096-0.793
	c0.163-0.014,0.111-1.328,0.088-1.453c-0.045-0.246-0.104-0.424-0.268-0.617c-0.29-0.34-0.396-0.172-0.355-0.766
	c0.023-0.369-0.057-0.727-0.056-1.002c0.006-0.857-0.128-1.713-0.128-2.57c0.002-2.016,0.003-4.033,0.004-6.051
	c0-0.547,0.036-1.189,0.16-1.732c0.119-0.342,0.355-0.656,0.583-0.945c0.192-0.246,0.47-0.424,0.766-0.527
	c0.317-0.436,0.239-0.648,0.236-1.248c-0.005-0.955,0.004-1.908,0.007-2.861c0.001-0.477,0.007-0.953,0.008-1.43
	c0-0.818-0.278-1.576-0.291-2.412c-0.012-0.914,1.901-3.803,1.879-4.715c-0.021-0.816,0.017-1.637,0.007-2.453
	c-0.012-0.885,0.82-1.451,0.924-2.328c0.041-0.354,0.126-0.701,0.154-1.051c0.033-0.4,0.055-0.779,0.16-1.166
	c0.089-0.32,0.243-0.611,0.268-0.941c0.023-0.354-0.104-0.617-0.247-0.91c-0.192-0.387-0.265-0.752-0.356-1.182
	c-0.039-0.182-0.085-0.359-0.143-0.533c-0.082-0.246-0.197-0.48-0.26-0.736c-0.053-0.203-0.191-0.932-0.065-1.092
	c0.16-0.203,0.56,0.191,0.67,0.318C210.009,79.738,209.934,79.186,210.197,79.127"/>
<path fill="none" stroke="#142B38" stroke-width="40" stroke-linecap="round" stroke-linejoin="round" stroke-miterlimit="10" d="
	M210.197,79.127c0.347-0.076,0.803,0.369,1.042,0.609c0.006-0.223-0.294-0.371-0.378-0.553c-0.114-0.248-0.037-0.346-0.048-0.605
	c-0.02-0.471-0.268-0.301-0.541-0.359c-0.438-0.098-0.459-0.605-0.74-0.918c-0.149-0.166-0.293-0.158-0.436-0.279
	c-0.18-0.154-0.255-0.438-0.397-0.633c-0.265-0.361-0.616-0.602-1.016-0.693c-0.195-0.043-0.393-0.02-0.555-0.182
	c0.069-0.293,0.484-0.797,0.386-1.111c-0.06-0.193-0.525-0.256-0.646-0.361c-0.39-0.344-0.382-1.197-0.655-1.654
	c-0.284-0.479-0.564-0.861-0.738-1.414c-0.163-0.523,1.247-1.563,0.939-1.996c-0.351-0.494-0.903-0.514-1.396-0.676
	c-0.22,0.035-0.369-0.064-0.449-0.299c-0.137-0.334-0.271-0.672-0.396-1.012c-0.188-0.559-0.399-1.102-0.594-1.654
	c-0.267-0.756-0.16-1.57-0.462-2.32c-0.258-0.639-0.35-1.332-0.554-1.998c-0.141-0.455-0.06-1.186-0.288-1.566
	c-0.479-0.039-1.006,0.561-1.479,0.324c0.007-0.336-0.174-0.514-0.307-0.787c-0.171-0.344-0.202-0.705-0.352-1.061
	c-0.191-0.467-0.535-0.912-0.813-1.309c-0.152-0.158-0.195-0.219-0.212-0.414c-0.009-0.098-0.01-0.191-0.025-0.289
	c-0.033-0.193-0.098-0.379-0.169-0.559c-0.021-0.047-0.042-0.094-0.063-0.143c-0.01-0.064-0.004-0.133-0.017-0.197
	c-0.036-0.102-0.105-0.199-0.188-0.293c-0.062-0.145-0.12-0.291-0.159-0.445c-0.098-0.391,0.012-0.787-0.148-1.174
	c-0.039-0.094-0.094-0.166-0.112-0.27c-0.02-0.107,0.027-0.219-0.002-0.33c-0.207,0.436-0.358,0.9-0.566,1.338
	c-0.033,0.068-0.045,0.182-0.12,0.221c-0.116,0.057-0.061,0.012-0.141-0.063c-0.031-0.082-0.08-0.129-0.168-0.143
	c-0.047-0.133-0.109-0.256-0.21-0.359c-0.245-0.379-0.495-0.754-0.747-1.127c-0.076-0.111-0.121-0.215-0.166-0.318
	c0.02-0.209,0.101-0.428,0.14-0.602c0.059-0.256,0.081-0.492,0.092-0.756c0.022-0.541,0.332-1.816-0.421-1.855
	c-0.093-0.008-0.212,0.035-0.328,0.07c-0.133-0.188-0.274-0.367-0.391-0.52c-0.197-0.262-0.528-0.43-0.687-0.717
	c-0.298-0.545-0.096-1.182-0.739-1.32c-0.056-0.012-1.707,0.48-1.779,0.473c-0.073-0.07-0.157-0.125-0.269-0.135
	c-0.29-0.023-0.557,0.016-0.844-0.039c-0.257-0.049-0.435,0.029-0.649,0.186c-0.226,0.164-0.363,0.818-0.589,0.871
	c-0.041-0.088-0.079-0.221-0.138-0.293c-0.083-0.105-0.209-0.135-0.289-0.248c-0.296-0.424-0.055-1.246-0.275-1.748
	c-0.188-0.428-0.517-0.797-0.819-1.152c-0.78-0.914-1.683-1.865-2.631-2.627c-0.819-0.566-1.705-1.006-2.658-1.32
	c-0.642-0.279-1.263-0.592-1.865-0.941c-1.113-0.527-2.647-0.631-3.668-1.32c-1.271-0.859-1.803-2.486-3.004-3.455
	c-0.831-0.672-1.87-1.158-2.752-1.758c-0.687-0.553-1.425-1.031-2.216-1.438c-0.745-0.281-3.528,1.488-4.307,1.307
	c-0.834-0.229,0.41-0.416-0.463-0.463c-1.865-0.096-3.813-0.277-5.656-0.578c-1.99-0.324-3.92-0.898-5.929-1.141
	c-1.069-0.102-2.143-0.186-3.216-0.254c-0.715-0.129-1.409-0.322-2.084-0.582c-0.925-0.211-3.924-2.1-4.859-2.094
	c-1.021,0.004-2.371-0.227-3.375-0.004c-0.846,0.188-1.565,0.766-2.439,0.99c-2.304,0.588-4.901,0.242-7.257,0.5
	c-0.661,0.072-1.283,0.271-1.934,0.379c-0.903,0.146-1.884,0.047-2.796,0.041c-0.847-0.008-1.851-0.119-2.67,0.174
	c-0.572,0.205-1.033,0.652-1.512,1c-1.985,1.439-4.232,2.09-6.454,3.109c-0.697,0.32-1.397,0.662-2.087,0.998
	c-0.966,0.473-1.178,0.635-1.707,1.43c-1.157,1.734-3.521,2.029-5.269,2.91c-0.446,0.225-0.847,0.529-1.214,0.857
	c-0.604,0.537-1.47,1.15-1.79,1.887c-0.227,0.52-0.162,0.93-0.819,1.133c-0.438-0.094-0.857-0.111-1.279-0.111l0.084-0.123
	c-0.015-0.004-0.03-0.006-0.046-0.01c-0.53-0.053-1.063-0.074-1.596-0.063c-0.939,0.02-1.865-0.004-2.613,0.592
	c-0.889,0.449-1.458,1.135-1.818,1.947c-0.041-0.01-0.079-0.025-0.122-0.031c-0.133,0.299-0.203,0.723-0.285,1
	c-0.086,0.289-0.136,0.57-0.175,0.852c-0.32,0.971-0.842,1.973-1.64,2.578c-0.182,0.137-0.381,0.25-0.575,0.369
	c-0.17-0.238-0.286-0.5-0.556-0.619c-0.181-0.078-0.524-0.08-0.792-0.053c-0.147,0.143-0.24,0.373-0.313,0.602
	c-0.1,0.303-0.112,0.627-0.115,0.949c0,0.045,0,0.084,0.002,0.125c-0.201,0.113-0.397,0.234-0.588,0.363
	c-0.079-0.08-0.166-0.146-0.277-0.135c-0.178,0.021-0.213,0.166-0.259,0.324c-0.028,0.096-0.029,0.197-0.061,0.277
	c-0.038,0.033-0.085,0.059-0.121,0.094c-0.008,0.006-0.014,0.012-0.02,0.018c-0.076,0.014-0.167-0.004-0.264-0.033
	c-0.125,0.178-0.229,0.365-0.299,0.555c-0.227,0.217-0.431,0.445-0.562,0.73c-0.235,0.514-0.156,1.104-0.377,1.625
	c-0.395,0.932-1.016,1.93-1.667,2.768c-0.054,0.047-0.115,0.082-0.16,0.133c-0.021,0.053-0.043,0.104-0.064,0.156
	c-0.025,0.029-0.051,0.066-0.075,0.096c-0.619,0.736-1.148,1.48-1.733,2.232c-0.422,0.541-1.193,0.777-1.558,1.342
	c-0.165,0.258-0.217,0.596-0.166,0.902c-0.025-0.002-0.051-0.008-0.075-0.006c-0.229,0.381-0.149,1.111-0.289,1.566
	c-0.205,0.666-0.299,1.359-0.555,1.998c-0.006,0.01,0.003,0.023-0.002,0.035c-0.449,0.615-0.306,1.381-0.304,2.107
	c0.006,1.555,0.006,2.861-1,4.137c-0.595,0.756-1.316,1.396-2.01,2.086c-0.802,0.799-1.711,1.061-1.771,2.221
	c-0.063,1.256,0.141,2.371-0.438,3.521c-0.081,0.037-0.164,0.078-0.248,0.17c-0.283,0.313-0.304,0.822-0.742,0.918
	c-0.272,0.061-0.521-0.111-0.541,0.361c-0.011,0.26,0.067,0.355-0.048,0.604c-0.085,0.184-0.384,0.33-0.378,0.553
	c0.121-0.121,0.298-0.293,0.487-0.426l1.45-2.139c-0.018,0.031-0.026,0.063-0.043,0.094c-0.404,0.727-0.863,1.361-1.354,2.016
	c0.169-0.111,0.347-0.188,0.501-0.154c0.263,0.059,0.188,0.613,0.146,0.869c0.111-0.127,0.512-0.52,0.672-0.316
	c0.126,0.16-0.016,0.889-0.066,1.092c-0.063,0.256-0.178,0.488-0.261,0.734c-0.059,0.176-0.104,0.354-0.145,0.535
	c-0.091,0.418-0.245,0.781-0.37,1.186c-0.217,0.711-0.177,1.07,0.002,1.785c0.059,0.234,0.127,0.459,0.154,0.699
	c0.038,0.332,2.057,2.658,1.988,2.988c-0.121,0.6-0.398,1.143-0.441,1.764c-0.066,0.969,0.198,1.953,0.262,2.918
	c0.067,1.074,0.046,2.162,0.292,3.217c0.245,1.047,0.806,1.59,1.271,2.488c0.711,1.375-0.043,2.58-0.14,3.998
	c-0.047,0.686-0.129,1.355-0.351,2.01c-0.305,0.898-0.805,1.709-0.893,2.666c-0.085,0.934-0.064,1.969-0.02,2.902
	c0.038,0.818,0.793,0.604,1.004,1.313c0.227,0.762,0.009,1.955,0.009,2.729c-0.001,1.137-0.177,2.385,0.044,3.502
	c0.068,0.346,0.182,0.67,0.183,1.027c-0.001,0.295-0.097,0.555-0.145,0.842c-0.095,0.559-0.12,0.883,0.267,1.33
	c0.349,0.406,0.88,0.625,0.945,1.215c0.493,0.275,1.287-0.455,1.813-0.455c0.745,0,0.714,1.49,1.068,2.043
	c0.438,0.684,1.118,0.957,1.284,1.785c0.124,0.615-0.067,2.324,1.186,1.809c0.5-0.203,0.592-0.816,0.832-1.275
	c0.79,6.877,1.938,14.037,3.069,19.371l0.389,1.847c1.595,7.602,3.242,15.455,7.143,22.615c1.2,2.205,2.604,4.289,4.103,6.271
	c0.021,0.139,0.047,0.273,0.067,0.418c0.087,0.607,0.046,1.203,0.083,1.811c0.312,0.027,1.298-0.188,1.635,0.027
	c0.023,0.027,0.047,0.059,0.072,0.088c-0.085,0.346,0.038,0.697,0.106,1.033c0.167,0.809,0.154,1.635,0.243,2.455
	c0.033,0.412,0.088,0.82,0.165,1.229c0.112,0.361,0.226,0.725,0.34,1.086c0.073,0.455,0.097,0.914,0.069,1.375
	c-0.06,0.225-0.052,0.441,0.024,0.648c0.348-0.049,0.682-0.127,1.03-0.146c0.116,0.189,0.228,0.648,0.261,0.855
	c0.063,0.396-0.097,0.779-0.207,1.154c-0.188,0.639-0.287,1.059-0.069,1.715c0.114,0.342,0.262,0.578,0.442,0.838
	c-0.171,4.486-2.527,8.643-2.77,11.621c-0.373,4.611-0.43,5.32,0.028,6.279c0.541,1.133,1.559,1.627,2.167,1.924l0.136,0.066
	c0.696,0.414,1.414,0.805,2.131,1.193c0.368,0.199,0.736,0.396,1.103,0.602c7.923,4.42,17.106,9.611,25.828,15.301
	c1.662,1.086,3.62,2.389,5.524,3.807c0.157,0.121,0.396,0.344,0.672,0.598c1.859,1.689,3.122,2.758,4.697,2.76
	c0.111,0,0.223-0.006,0.336-0.016c1.547-0.146,2.828-1.258,4.753-3.072c0.354-0.332,0.657-0.629,0.85-0.773
	c2.025-1.473,4.149-2.857,5.773-3.902c8.407-5.406,17.221-10.402,25.493-14.996l0.858-0.467c0.6-0.326,1.197-0.65,1.755-0.98
	l0.146-0.074c0.563-0.279,1.507-0.746,2.05-1.771c0.521-0.984,0.475-1.367-0.11-6.035c-0.393-3.125-0.979-7.814-1.284-12.404
	c0.086-0.143,0.166-0.289,0.232-0.475c0.239-0.646,0.155-1.072-0.012-1.715c-0.098-0.379-0.244-0.766-0.166-1.162
	c0.04-0.205,0.167-0.66,0.288-0.844c0.351,0.027,0.68,0.119,1.025,0.18c0.084-0.207,0.1-0.422,0.048-0.646
	c-0.01-0.461,0.027-0.92,0.115-1.371c0.127-0.359,0.252-0.717,0.377-1.074c0.092-0.404,0.16-0.814,0.207-1.225
	c0.116-0.816,0.134-1.645,0.328-2.445c0.083-0.346,0.229-0.705,0.141-1.064c0.252-0.305,1.375-0.008,1.713-0.023
	c0.058-0.605,0.037-1.199,0.146-1.809c0.094-0.52,0.191-1.031,0.299-1.541c2.151-2.934,4.039-6.141,5.25-9.73
	c2.599-7.713,3.938-16.096,4.815-22.607c0.675-5,1.257-10.986,1.634-16.986h0.681l0.002-2.543c-0.001,0.172,0.496,0.305,0.831-0.125
	c0.626-0.801,0.31-2.648,1.433-2.887c0.265-0.055,0.513,0.063,0.789-0.031c0.438-0.152,0.63-0.484,0.794-0.881
	c0.223-0.537,0.312-1.119,0.496-1.668c0.241-0.713,0.4-0.736,1.096-0.793c0.163-0.014,0.111-1.328,0.088-1.453
	c-0.045-0.246-0.104-0.424-0.268-0.617c-0.29-0.34-0.396-0.172-0.355-0.766c0.023-0.369-0.057-0.727-0.056-1.002
	c0.006-0.857-0.128-1.713-0.128-2.57c0.002-2.016,0.003-4.033,0.004-6.051c0-0.547,0.036-1.189,0.16-1.732
	c0.119-0.342,0.355-0.656,0.583-0.945c0.192-0.246,0.47-0.424,0.766-0.527c0.317-0.436,0.239-0.648,0.236-1.248
	c-0.005-0.955,0.004-1.908,0.007-2.861c0.001-0.477,0.007-0.953,0.008-1.43c0-0.818-0.278-1.576-0.291-2.412
	c-0.012-0.914,1.901-3.803,1.879-4.715c-0.021-0.816,0.017-1.637,0.007-2.453c-0.012-0.885,0.82-1.451,0.924-2.328
	c0.041-0.354,0.126-0.701,0.154-1.051c0.033-0.4,0.055-0.779,0.16-1.166c0.089-0.32,0.243-0.611,0.268-0.941
	c0.023-0.354-0.104-0.617-0.247-0.91c-0.192-0.387-0.265-0.752-0.356-1.182c-0.039-0.182-0.085-0.359-0.143-0.533
	c-0.082-0.246-0.197-0.48-0.26-0.736c-0.053-0.203-0.191-0.932-0.065-1.092c0.16-0.203,0.56,0.191,0.67,0.318
	C210.009,79.738,209.934,79.186,210.197,79.127z"/>
<path class="clr-stroke" fill="none" stroke="#F76D6D" stroke-width="5" stroke-miterlimit="10" d="M183.308,185.606
	c-0.934,9.783,2.164,27.266,1.834,27.898c-0.149,0.285-0.802,0.529-1.121,0.723c-0.868,0.523-1.776,0.996-2.661,1.494
	c-9.021,5.084-17.955,10.348-26.646,15.904c-2.192,1.404-4.196,2.764-6.137,4.207c-0.811,0.604-3.318,3.381-4.295,3.473
	c-0.741,0.072-3.068-2.371-3.778-2.908c-1.91-1.441-3.896-2.799-5.901-4.127c-8.729-5.775-17.853-11.055-27.003-16.23
	c-1.092-0.617-2.212-1.201-3.282-1.852c-0.354-0.213-1.057-0.461-1.206-0.779c-0.369-0.785,1.588-15.113,1.063-27.842"/>
<path class="clr-stroke" fill="none" stroke="#F76D6D" stroke-width="6" stroke-miterlimit="10" d="M200.225,131.096c0,0,0.005-10.049,0.006-12.711
	c-0.004,8.629-1.119,17.896-2.255,26.438c-1.022,7.684-2.474,15.898-4.907,23.229c-2.356,7.096-7.555,12.098-12.332,17.398
	c-4.554,5.051-9.655,9.313-15.29,12.879c-6.162,3.9-13.425,6.438-20.643,6.723c-6.897,0.273-13.813-1.66-19.897-4.961
	c-6.082-3.301-11.654-7.324-16.643-12.332c-4.753-4.771-9.635-9.51-12.912-15.615c-4.111-7.656-5.563-16.266-7.343-24.787
	c-1.949-9.335-4.052-21.604-4.047-31.231"/>
<path class="clr-fill" fill="#F76D6D" d="M184.392,113.016c-0.497,0.123-0.658-0.719-0.888-0.998c-0.313-0.381-0.729-0.553-1.13-0.813
	c-0.191-0.129-0.477-0.342-0.67-0.451c-0.466-0.266-0.894-0.115-1.263-0.25c-0.501-0.186-0.132,0.059-0.496-0.42
	c-0.079-0.105-0.229-0.266-0.294-0.369c-0.465-0.75-1.011-0.646-1.854-0.865c-0.063-0.197,0.313-0.357,0.398-0.465
	c-0.579-0.344-1.328-0.189-1.91-0.404c-0.482-0.176-0.619-0.715-0.987-0.348c0.046-0.045-0.631-1.375-0.64-1.395
	c-0.194,0.031-0.093,0.561-0.316,0.48c-0.173-0.063-0.217-0.008-0.388,0.008c-0.008-0.244-0.016-0.488-0.024-0.732
	c-0.746,0.406-1.069,1.313-1.643,1.893c-0.287-0.578-1.191-1.17-1.641-1.627c0.179,0.348,0.436,0.666,0.694,0.957
	c-0.607,0.203-0.859-0.068-1.422-0.012c-0.388,0.037-1.477,0.578-1.88,0.426c0.001-0.186-0.003-0.369-0.014-0.555
	c-0.954,0.459-2.33,0.33-3.34,0.133c0.026-0.176,0.097-0.332,0.206-0.473c-0.57-0.096-1.562-0.137-2.116-0.037
	c-0.334,0.062-1.19,0.582-1.542,0.434c-0.144-0.545-0.212-0.736-0.808-0.658c0.429-0.705-0.555-0.426-0.839-0.496
	c-0.096-0.244,0.579-0.773,0.79-0.729c-0.762,0.016-0.984,0.418-1.585,0.764c-0.521,0.301-1.085,0.219-1.491,0.752
	c-0.316,0.416-0.721,1.219-0.935,1.68c-0.192,0.414-0.163,0.852-0.298,1.326c0.009-0.221-0.31,0.656,0.041,0.828
	c-0.34-0.393,0.237,0.432,0.156,0.232c0.103,0.254,0.094,0.135-0.069,0.404c0.149,0.305,0.521,0.463,0.763,0.813
	c0.337,0.488,0.256,0.748,0.924,0.775c0.231,0.01,0.463-0.186,0.668-0.174c0.193,0.012,0.352,0.188,0.525,0.197
	c0.396,0.025,0.413-0.068,0.742-0.141c0.311-0.07,0.628-0.061,1.008-0.041c1.729,0.084,3.415-0.586,5.18-0.559
	c0.807,0.012,1.627,0.09,2.438,0.066c0.409-0.012,0.815-0.047,1.222-0.104c0.499-0.068,1.558,0.047,0.781-0.465
	c0.387-0.018,0.816-0.029,1.196,0.074c-0.08,0.01-0.16,0.02-0.24,0.029c0.715,0.309,1.596,0.217,2.369,0.408
	c0.886,0.221,1.666,0.881,2.625,0.76c0.646-0.082,1.13-0.451,1.81-0.277c0.563,0.143,1.108,0.551,1.627,0.795
	c0.963,0.449,2.188,0.77,3.188,0.605c0.25-0.041,0.854-0.262,1.078-0.258c0.309,0.008,0.659,0.35,1.016,0.199
	C186.095,113.531,184.785,113.154,184.392,113.016C184.179,113.068,184.711,113.129,184.392,113.016 M180.451,110.084
	C180.403,110.055,180.506,110.094,180.451,110.084C180.447,110.082,180.457,110.084,180.451,110.084 M172.128,108.032
	C172.104,108.055,171.849,107.777,172.128,108.032C172.12,108.041,172.089,108,172.128,108.032"/>
<path class="clr-fill" fill="#F76D6D" d="M102.531,113.709c-0.031,0.303,0.879,0.115,1.019,0.08c0.401-0.104,0.684-0.383,1.123-0.416
	c0.251-0.021,0.517,0.105,0.771,0.1c0.592-0.014,1.143-0.256,1.717-0.371c0.849-0.168,1.61,0.137,2.413-0.08
	c0.712-0.191,1.3-0.291,2.033-0.404c0.81-0.123,1.345-0.582,2.097-0.838c0.844-0.289,1.005,0.182,1.788,0.328
	c0.604,0.115,1.268-0.158,1.868-0.188c1.263-0.063,2.541,0.186,3.835,0.127c1.712-0.08,3.199,0.234,4.872,0.508
	c0.72,0.119,1.503-0.055,2.141,0.086c0.335,0.076,0.337,0.178,0.743,0.143c0.165-0.014,0.325-0.188,0.503-0.211
	c0.619-0.082,0.84,0.285,1.527-0.086c0.159-0.086,0.892-0.506,0.9-0.613c0.033-0.396-0.273-0.186-0.424-0.449
	c0.299-0.203,1.673-0.541,1.523-1.217c-0.293,0.072-0.407-0.039-0.346-0.332c-0.259,0.021-0.374,0.406-0.679,0.191
	c-0.17-0.121-0.127-0.541-0.101-0.715c0.021-0.145,0.17-0.291,0.182-0.383c0.079-0.635-0.11-0.43-0.394-0.992
	c-0.23-0.455,0.095-0.658-0.115-0.959c-0.084-0.121-0.629-0.295-0.79-0.432c-0.073-0.061-0.042-0.232-0.121-0.305
	c-0.153-0.137-0.353-0.164-0.516-0.279c-0.105-0.076-0.319-0.006-0.411-0.084c-0.072-0.061,0-0.373-0.082-0.418
	c-0.275-0.146-0.248-0.133-0.629,0c-0.511,0.178-0.614,0.602-1.047,0.775c-0.428,0.172-1.433-0.037-1.986,0.068
	c-1.012,0.195-1.953,0.217-2.973,0.34c-0.342,0.041-0.931,0.074-1.23,0.24c-0.234,0.129-0.33,0.436-0.526,0.533
	c-0.579,0.285-1.457,0.195-2.086,0.365c-0.774,0.209-1.028,0.084-1.797-0.146c-0.222-0.068-0.475-0.145-0.688-0.205
	c-0.444-0.131-0.286-0.186-0.771-0.113c-0.513,0.076-1.022,0.17-1.505,0.293c-0.246,0.064-0.515,0.236-0.739,0.287
	c-0.403,0.094-0.35,0.051-0.759-0.016c-0.386-0.063-0.907-0.289-1.291-0.172c-0.433,0.129-0.273,0.275-0.479,0.428
	c-0.28,0.205-0.6,0.236-0.881,0.414c-0.34,0.211-0.462,0.617-0.762,0.889c-0.883,0.799-2.357,1.246-3.472,1.586
	c-0.414,0.127-0.823,0.26-1.19,0.604c-0.335,0.313-0.454,0.854-0.775,1.123C103.595,113.148,102.65,112.926,102.531,113.709
	C102.516,113.859,102.626,113.073,102.531,113.709 M107.562,110.021C107.619,109.994,107.58,110.018,107.562,110.021
	C107.572,110.016,107.567,110.02,107.562,110.021 M116.016,107.859C115.92,108.018,115.839,108.027,116.016,107.859
	C115.987,107.906,115.976,107.896,116.016,107.859"/>
<path class="clr-fill" fill="#F76D6D" d="M192.111,185.58c-0.269-0.213-2.849-4.049-2.3-4.512c0.56,0.652,3.849,2.895,2.463,1.434
	c0.202,0.369,0.482,0.518,0.845,0.443c0.348-0.699-2.189-4.111-2.36-5.074c-0.278-1.586,0.91-1.027,0.219-2.625
	c0.504,1.313-1.941-1.354-1.301-0.936c-1.522-0.99-0.776-1.813-2.842-0.469c-1.911,1.246-3.748,5.779-4.132,7.904
	c-0.332,1.836,0.045,3.814-0.094,5.672c-0.078,1.047-1.033,3.305-0.771,4.297c0.684,2.578,1.756-0.357,3.276,1.896
	c0.164-0.744-0.802-1.346-0.438-2.09c1.466,0.34,1.31,4.275,3.229,3.516c-0.952-0.945-3.283-4.432-2.649-5.9
	c0.539,0.684,0.705,1.758,1.362,2.336c1.15,1.01,0.239-0.619,1.532,0.334c0.32-1.352-1.405-2.318-1.784-3.457
	c0.594,0.477,1.152,0.988,1.672,1.543c-0.133-0.254-0.158-0.518-0.076-0.791c1.806,2.23,0.135-1.4-0.539-2.229
	c0.606,0.578,1.215,1.152,1.827,1.723c-0.032-0.135,0.323-1.604,0.97-0.729c0.638-0.6-1.658-2.553-1.976-2.926
	c1.726,0.545,1.901,2.766,3.487,3.484c-0.231-0.586-0.475-1.17-0.728-1.748c0.158,0.137,0.336,0.236,0.535,0.299
	c-0.035-0.611,0.275-0.227-0.122-0.887c0.529,0.482,1.131,0.852,1.804,1.1c-0.263-0.65-0.657-1.205-1.188-1.664
	C192.199,185.823,191.705,185.145,192.111,185.58C191.271,184.906,192.323,185.809,192.111,185.58"/>
<path class="clr-fill" fill="#F76D6D" d="M95.138,186.676c0.269-0.215,2.848-4.049,2.301-4.512c-0.561,0.652-3.85,2.895-2.463,1.432
	c-0.202,0.369-0.484,0.52-0.846,0.445c-0.349-0.699,2.189-4.113,2.359-5.074c0.28-1.588-0.91-1.027-0.217-2.625
	c-0.504,1.313,1.94-1.354,1.299-0.934c1.523-0.99,0.778-1.814,2.842-0.471c1.911,1.244,3.748,5.779,4.133,7.902
	c0.332,1.838-0.045,3.816,0.095,5.672c0.077,1.049,1.032,3.307,0.771,4.299c-0.682,2.578-1.756-0.357-3.275,1.896
	c-0.162-0.746,0.803-1.346,0.438-2.09c-1.465,0.34-1.308,4.275-3.229,3.516c0.952-0.945,3.283-4.434,2.648-5.9
	c-0.539,0.684-0.705,1.76-1.361,2.336c-1.149,1.012-0.238-0.617-1.531,0.334c-0.321-1.352,1.405-2.318,1.783-3.457
	c-0.594,0.477-1.151,0.988-1.672,1.543c0.133-0.254,0.157-0.52,0.075-0.791c-1.805,2.229-0.135-1.4,0.539-2.229
	c-0.604,0.576-1.215,1.15-1.827,1.723c0.032-0.137-0.322-1.604-0.97-0.729c-0.636-0.6,1.66-2.553,1.977-2.926
	c-1.727,0.543-1.9,2.766-3.486,3.484c0.229-0.586,0.473-1.17,0.727-1.748c-0.158,0.137-0.337,0.234-0.534,0.299
	c0.033-0.611-0.275-0.229,0.12-0.887c-0.527,0.484-1.131,0.85-1.804,1.098c0.263-0.65,0.66-1.203,1.188-1.664
	C95.049,186.92,95.542,186.239,95.138,186.676C95.978,186.002,94.925,186.903,95.138,186.676"/>
<path class="clr-fill" fill="#F76D6D" d="M211.693,77.482c-0.133-0.699-0.069-1.396-0.151-2.098c-0.079-0.678-0.354-1.342-0.333-2.025
	c0.46,0.043,0.744,0.438,1.067,0.742c0.506-1.797-0.721-3.613-1.146-5.242c-0.287-1.096-0.614-1.793-1.218-2.734
	c-0.412-0.643-0.782-1.234-0.733-2.063c0.386,0.146,0.608,0.477,1,0.566c-0.396-0.795-1.23-1.627-1.43-2.477
	c-0.138-0.6,0.117-1.188-0.275-1.74c0.504,0.154,0.973-0.104,0.987-0.637c-1.952-0.67-2.979-2.451-4.329-3.855
	c-0.636-0.66,0.072-1.066-0.459-1.824c-0.39-0.555-1.498-0.895-1.535-1.59c0.332-0.365,0.777-0.412,1.14-0.746
	c0.263-0.244,0.348-0.6,0.652-0.813c-0.935,0.072-2.445,0.357-3.336,0.1c-0.505-0.148-0.474-0.309-0.685-0.844
	c-0.558-1.416-0.191-3.213-1.202-4.391c0.667,0.488,1.411,1.004,2.18,1.326c1.144,0.477,2.334,0.428,3.447,0.967
	c0.764,0.369,2.55,1.389,3.38,0.793c-0.818-2.703-4.761-2.018-6.556-3.525c-0.651-0.547-1.252-0.697-2.047-0.93
	c-0.347-0.102-0.775-0.143-1.109-0.242c-0.656-0.199-0.43-0.061-0.571-0.764c-0.077-0.379-0.064-0.762,0.048-1.125
	c0.718-0.904,1.441-1.805,2.174-2.699c0.461-0.617,0.922-1.234,1.382-1.854c0.459-0.771,1.028-1.447,1.706-2.029
	c0.423-0.131,0.658-0.387,0.704-0.768c-2.43,1.275-3.674,3.623-5.719,5.287c-0.557,0.453-0.942,0.783-1.493,0.115
	c-0.219-0.451-0.371-0.924-0.457-1.42c-0.166-0.373-0.424-0.672-0.772-0.895c-0.552-0.607-1.296-1.305-1.495-2.141
	c0.104,0.666,0.013,1.518-0.24,2.139c-0.258-1.09-0.181-1.545-0.857-2.328c-0.683-0.789-1.393-1.814-1.606-2.854
	c-0.078,1.434,0.184,3.793-0.58,5.031c-0.411-0.854-0.746-1.711-1.107-2.584c-0.731-1.766-1.986-2.711-3.182-4.107
	c-1.025-1.197-2.428-2.977-3.03-4.443c-0.853-2.072-1.188-4.531-2.491-6.418c-0.213,2.705,0.347,5.422,0.845,8.07
	c0.143,0.756,0.612,1.84,0.37,2.615c-1.362-1.381-1.663-3.594-2.902-5.109c-0.878-1.072-1.867-1.592-2.914-2.426
	c-1.011-0.805-1.55-2.613-2.687-3.121c0.617,2.867,3.032,4.836,4.496,7.256c0.305,0.504,1.18,1.701,0.976,2.307
	c-1.6,0.514-8.671-9.738-9.95-8.236c1.029,2.514,2.747,4.68,4.195,6.957c0.344,0.539,1.599,1.814,1.569,2.471
	c-0.381,0.045-0.52-0.164-0.849-0.357c-1.038-0.609-1.947-1.426-2.999-2.029c-3.242-1.854-4.041-2.938-3.854-2.807
	c-1.203-1.184-2.953-1.577-4.302-2.602c-0.906-0.686-1.693-1.498-2.538-2.254c-0.409-0.365-0.864-0.967-1.496-0.869
	c1.565,2.594,4.416,4.211,6.313,6.549c1.026,1.268,0.136,0.736,1.42,1.68c-0.843,0.699-2.103-0.07-3.067,0.012
	c-0.345,0.029-0.716,0.008-1.096-0.04c-0.15-0.302-1.021-0.813-1.12-0.88c-0.549-0.361-1.155-0.559-1.72-0.891
	c-0.653-0.383-1.207-0.809-1.791-1.279c-0.423-0.338-0.824-0.547-1.338-0.729c-0.826-0.293-1.483-1.057-2.312-1.283
	c-0.338-0.092-0.668-0.09-0.995-0.242c-0.277-0.129-0.521-0.313-0.84-0.205c-0.034,0.33-0.206,0.854-0.466,1.066
	c-0.306,0.25-1.004-0.004-1.408,0.043c-1.119,0.133-2.2-0.014-3.307-0.105c-0.824-0.068-2.034-0.48-2.684,0.217
	c-0.197,0.213-0.35,0.479-0.585,0.664c-0.5,0.393-0.645-0.148-0.872-0.592c-0.045-0.006,0.057,0.279,0.01,0.271
	c-0.057,0.279-0.004,0.551,0.155,0.811c0.013,0.033,0.027,0.065,0.04,0.099c-1.769-0.294-3.474-0.804-5.296-0.829
	c-1.436-0.02-2.652-0.469-4.063-0.615c-0.847-0.088-1.914-0.127-2.763,0.008c-0.789,0.127-1.566,0.504-2.359,0.672
	c-0.112,0.779-0.061,1.217-0.983,1.48c-0.368,0.104-0.749,0.146-1.136,0.168c-0.027,0.002-0.053,0.004-0.08,0.004
	c-0.279,0.045-0.559,0.084-0.841,0.117c-0.606,0.072-1.213,0.748-1.822,0.799c-0.135,0.012-0.271,0.008-0.406,0.008
	c-0.767,0.221-3.466-0.012-4.226,0.283c-0.104,0.076-0.207,0.15-0.32,0.217c-0.142,0.082-0.244,0.176-0.369,0.268
	c-0.268,0.197-0.656,0.34-0.956,0.477c-0.179,0.082-0.401,0.104-0.527,0.264c-0.018,0.047-0.033,0.096-0.049,0.145
	c-0.051,0.076-0.11,0.141-0.185,0.193c-0.063,0.072-0.14,0.244-0.204,0.291c-0.141,0.037-0.281,0.072-0.424,0.105
	c-0.302,0.07-0.6,0.154-0.894,0.254c-0.233,0.078-0.448,0.176-0.657,0.283c-0.132,0.111-0.265,0.223-0.398,0.322
	c-0.103,0.078-0.197,0.15-0.293,0.221c0.074,0.037,0.174,0.045,0.208,0.147c0.063,0.191-0.736,0.461-0.729,0.457
	c-0.217,0.092-0.437,0.186-0.652,0.277c-0.221,0.041-0.408,0.135-0.562,0.287c-0.259,0.289-0.371,0.391-0.771,0.564
	c-0.41,0.182-0.785,0.277-1.141,0.541c-0.313,0.23-0.697,0.287-1.074,0.377c-0.342,0.08-0.626,0.156-0.93,0.342
	c-0.426,0.256-0.84-0.107-1.271,0.139c-0.186,0.105-0.378,0.201-0.573,0.287c-0.437,0.193-0.968,0.291-1.358,0.564
	c-0.253,0.178-0.517,0.318-0.781,0.477c-0.045,0.027-0.089,0.055-0.134,0.082c-0.076,0.051-0.089,0.088-0.095,0.223
	c-0.007,0.135,0.03,0.217-0.058,0.311c-0.14-0.012-0.272,0.014-0.403,0.074c-0.189,0.084-0.367,0.188-0.531,0.314
	c-0.403,0.283-0.726,0.631-1.118,0.926c-0.567,0.426-1.151,0.846-1.741,1.236c-0.411,0.27-0.859,0.301-1.295,0.496
	c-0.421,0.189-0.808,0.438-1.234,0.621c-0.422,0.18-1.017,0.125-1.287,0.529c-0.155,0.23-0.183,0.664-0.448,0.768
	c-0.106,0.002-0.211-0.004-0.317-0.014c-0.164-0.014-0.319,0.014-0.469,0.078c-0.411,0.184-0.813,0.34-1.209,0.564
	c-0.284,0.16-0.557,0.336-0.85,0.482c-0.424,0.215-0.313,0.141-0.51,0.5c-0.213,0.393-0.556,0.568-0.835,0.932
	c-0.249,0.326-0.349,0.775-0.63,1.07c-0.113,0.117-0.279,0.123-0.31,0.307c0.258-0.029,0.613-0.014,0.79,0.209
	c-0.025,0.215-0.106,0.41-0.242,0.584c-0.088,0.17-0.108,0.346-0.06,0.527c-0.142,0.344-0.402,0.463-0.731,0.672
	c-0.396,0.252-0.626,0.279-0.734,0.676c0.063,0.164,0.049,0.324-0.037,0.479c-0.121,0.152-0.252,0.297-0.391,0.434
	c-0.604,0.572-1.52,0.705-2.229,1.15c-0.438,0.277-0.528,0.664-0.847,1.008c-0.145,0.158-0.685,0.27-0.446,0.592
	c0.193-0.152,0.3,0.117,0.412,0.262c-0.352,0.348-0.795,0.512-1.058,0.969c-0.262,0.457-0.527,0.813-0.849,1.238
	c-0.376,0.498-0.688,0.961-0.995,1.496c-0.284,0.488-1.004,0.793-1.201,1.303c-0.146,0.377,0.012,0.842-0.156,1.252
	c-0.16,0.393-0.479,0.662-0.653,1.047c-0.16,0.354-0.377,1.213-0.608,1.523c-0.255,0.342-0.185,0.563-0.189,0.99
	c-0.004,0.305-0.02,0.627,0.039,0.928c0.029,0.145,0.16,0.361,0.146,0.51c-0.034,0.322-0.429,0.504-0.659,0.67
	c-0.364,0.26-0.76,0.508-1.181,0.668c-0.313,0.119-0.66-0.014-0.949,0.1c-0.342,0.135-0.25,0.518-0.256,0.824
	c-0.011,0.508-0.141,0.6-0.447,0.916c-0.494,0.504-0.648,1.217-1.07,1.727c-0.382,0.463-0.833,1.119-1.058,1.678
	c-0.21,0.521,0.02,1.086-0.041,1.627c-0.195,1.742-0.612,3.514-1.229,5.189c-0.469,1.275-0.455,2.219-1.271,3.398
	c0.61,0.102,0.811-1.002,1.388-1.168c0.108,0.688-0.529,1.615-0.654,2.256c-0.093,0.479,0.021,0.938-0.029,1.4
	c-0.072,0.666-1.139,0.965-0.717,1.518c0.543-0.441,0.942,0.074,1.174-0.568c-0.221,0.85-0.733,0.902-0.36,1.75
	c0.218-0.004,0.438-0.008,0.655-0.014c0.218-0.006,0.436,3.039,0.424,3.346c-0.009,0.203-0.05,0.352-0.091,0.545
	c-0.104,0.49-0.146,1.014-0.189,1.512c-0.072,0.813-0.109,1.629-0.199,2.439c-0.025,0.236-0.006,0.963-0.248,1.086
	c0.316-0.098,0.774-0.01,1.082,0.121c0.459,0.193,0.319,0.201,0.177,0.477c-0.21,0.4-0.294,0.447-0.379,0.961
	c-0.073,0.438-0.113,0.834-0.117,1.273c-0.005,0.531,0.101,1.139-0.112,1.641c-0.161,0.379-0.293,0.73-0.396,1.143
	c0.378,0.076,0.934-0.662,1.294-0.854c0.031,0.441-0.223,0.943-0.309,1.377c-0.074,0.367-0.145,0.742-0.16,1.115
	c-0.027,0.766-0.089,1.678,0.045,2.436c0.277,1.555-0.463,3.082-0.359,4.648c0.471,0.193,1.218,0.166,1.604,0.514
	c0.396,0.354-0.085,1.266-0.146,1.719c-0.155,1.125-0.194,2.297-0.441,3.404c-0.207,0.928-0.729,1.715-0.702,2.688
	c0.024,0.857,0.009,1.717,0.008,2.574c0,0.502,0.054,1.029-0.027,1.527c-0.137,0.84-0.515,1.445-0.267,2.268
	c0.188,0.621,0.302,1.27,0.456,1.9c0.146,0.592,0.233,1.158,0.312,1.76c0.025-0.102,0.063-0.063,0.116,0.119
	c0.059,0.262,0.211,0.432,0.455,0.514c0.124-0.066,0.232-0.15,0.33-0.254c0.177,0.055,0.635,0.15,0.758,0.279
	c0.143,0.15-0.011,0.361,0.064,0.529c0.448-0.803,0.809-1.654,1.277-2.445c0.179,0.09,0.093,0.705,0.092,0.813
	c-0.006,0.637-0.04,1.275,0.018,1.908c0.025,0.314,0.154,0.545,0.206,0.842c0.035,0.225-0.046,0.459-0.007,0.689
	c0.122,0.018,0.239,0,0.354-0.051c0.114,0.113,0.022,0.227,0.077,0.352c0.101,0.238,0.321,0.145,0.517,0.096
	c0.362-0.09,0.581-0.193,0.842-0.441c0.094,0.492-0.042,0.928,0.146,1.43c0.221,0.592,0.719,0.998,1.08,1.498
	c0.268,0.369,0.425,0.766,0.604,1.184c0.09,0.209,0.157,0.387,0.217,0.604c0.054,0.191,0.095,0.24,0.299,0.285
	c0.396,0.09,0.877-0.033,1.092-0.402c0.295-0.51,0.206-1.357,0.335-1.932c0.158-0.705,0.372-1.398,0.513-2.107
	c0.002-0.008,0.004-0.016,0.006-0.023c0.102-0.027,0.207-0.037,0.334-0.072c0.203-0.127,0.423-0.209,0.661-0.25
	c0.235,0.01,0.444-0.053,0.627-0.188c0.128-0.148,0.095-0.355,0.277-0.488c-0.25-0.479-0.495-0.924-0.35-1.455
	c0.103-0.373,0.247-0.607,0.247-1.02c0-0.236-0.125-0.545,0.079-0.701c0.186-0.141,0.709-0.02,0.911,0.004
	c0.116-0.207-0.045-0.475-0.181-0.656c0.553-0.057,2.097-0.027,1.396-0.963c-0.319-0.426-0.485-0.611-0.589-1.162
	c-0.08-0.436-0.113-0.871-0.216-1.301c0.501-0.582,0.974-1.209,1.353-1.871c0.231,0.018,0.473,0.043,0.586-0.18
	c0.109-0.213,0.014-0.441-0.132-0.578c-0.022-0.002-0.044-0.014-0.064-0.018c0.093-0.264,0.132-0.537-0.021-0.738
	c-0.139-0.188-0.42-0.197-0.619-0.271c-0.226-0.082-0.384-0.18-0.496-0.291c-0.007-0.156-0.004-0.313-0.011-0.469
	c-0.01-0.271-0.073-0.566-0.044-0.834c0.142-1.225,1.303-2.445,1.766-3.58c0.113-0.285,0.213-0.592,0.299-0.908
	c0.107-0.072,0.203-0.152,0.261-0.25c0.163-0.268,0.105-0.578-0.031-0.852c0.083-0.521,0.139-1.035,0.146-1.512
	c0.02-1.078-0.108-2.162-0.072-3.238c0.002-0.072,0.01-0.146,0.018-0.215c0.063-0.143,0.129-0.283,0.173-0.434
	c0.141-0.479,0.281-0.893,0.272-1.398c-0.002-0.191,0.085-0.609-0.025-0.777c-0.086-0.127-0.269-0.186-0.397-0.291
	c0.003-0.01,0.009-0.02,0.012-0.031c0.092-0.299,0.167-0.602,0.233-0.91c0.045-0.057,0.084-0.104,0.105-0.135
	c0.12-0.164,0.346-0.369,0.321-0.582c-0.034-0.324-0.208-0.576-0.157-0.92c0.04-0.268,0.139-0.52,0.155-0.795
	c0.021-0.285-0.033-0.559,0.001-0.844c0.141-1.152,0.896-2.129,1.425-3.125c0.064-0.121,0.115-0.241,0.172-0.361
	c-0.008,0.048-0.015,0.099-0.021,0.146l-0.044,0.355c-0.012,0.127-0.028,0.268-0.034,0.391c-0.018,0.25-0.021,0.494-0.024,0.734
	c-0.005,0.955,0.064,1.799,0.059,2.553c0,0.748-0.099,1.426-0.165,2.084c-0.071,0.637-0.081,1.287-0.059,1.713
	c0.025,0.924,0.042,1.451,0.042,1.451l0.001,0.023c0.005,0.158,0.097,0.287,0.212,0.291c0.12,0.004,0.22-0.129,0.223-0.297
	c0,0,0.009-0.527,0.025-1.447c0.001-0.494,0.03-0.969,0.128-1.596c0.088-0.605,0.231-1.346,0.271-2.182
	c0.044-0.824,0.018-1.693,0.061-2.549c0.013-0.213,0.025-0.426,0.053-0.637c0.01-0.109,0.026-0.197,0.04-0.303l0.058-0.34
	c0.086-0.459,0.174-0.93,0.265-1.408c0.178-0.957,0.361-1.945,0.55-2.949c0.156-1.018,0.313-2.053,0.474-3.086
	c0.025-0.158,0.059-0.31,0.084-0.466c1.063-1.619,2.409-3.132,2.376-5.138c-0.021-1.228,0.115-2.133,0.488-2.944
	c0.215-0.378,0.431-0.7,0.631-0.903c0.246-0.273,0.788-0.492,1.319-1.016c0.348-0.338,0.734-0.688,1.049-1.09
	c0.274-0.348,0.53-0.791,0.666-1.332c0.003-0.004,0.007-0.008,0.01-0.012c0.296-0.48,0.677-0.883,1.144-1.201
	c0.389,0.025,0.769-0.031,1.138-0.164c-0.154,0.31-0.308,0.62-0.464,0.934c-0.337,0.688-0.664,1.385-0.989,2.082
	c-1.302,2.791-2.506,5.682-3.558,8.684c-0.266,0.766-0.503,1.504-0.749,2.295l-0.671,2.306c-0.439,1.541-0.853,3.098-1.237,4.664
	c-0.043,0.174,0.013,0.369,0.134,0.451c0.13,0.088,0.287,0.01,0.351-0.172l1.535-4.459l0.786-2.213
	c0.268-0.697,0.56-1.436,0.849-2.129c1.154-2.844,2.439-5.578,3.788-8.254l1.027-1.992c0.344-0.654,0.695-1.338,1.042-1.959
	c0.353-0.623,0.707-1.188,1.105-1.75c0.075-0.107,0.164-0.199,0.241-0.305c0.4-0.033,0.796-0.092,1.189-0.165
	c-0.054,0.143-0.109,0.277-0.163,0.423c-0.702,1.906-1.34,4.012-1.848,6.162c-0.176,0.729-0.337,1.432-0.502,2.129
	c-0.147,0.217-0.294,0.426-0.44,0.646c-0.264,0.395-0.523,0.803-0.774,1.217c-0.258,0.424-0.497,0.861-0.729,1.299
	c-0.463,0.879-0.889,1.768-1.313,2.641c-0.423,0.871-0.849,1.734-1.314,2.506c-0.465,0.754-1.073,1.445-1.576,2.301l-0.004,0.006
	c-0.086,0.146-0.082,0.363,0.014,0.504c0.104,0.15,0.275,0.154,0.383,0.008c0.525-0.711,1.161-1.264,1.761-2.029
	c0.572-0.777,1.069-1.605,1.562-2.43c0.423-0.717,0.829-1.436,1.247-2.122c-0.486,1.761-0.933,3.426-1.288,4.886
	c-0.391,1.602-0.682,2.951-0.849,3.918c-0.09,0.482-0.146,0.857-0.188,1.113c-0.042,0.256-0.063,0.393-0.063,0.393
	c-0.027,0.174,0.045,0.354,0.168,0.406c0.131,0.057,0.269-0.047,0.309-0.229c0,0,0.029-0.135,0.084-0.385
	c0.058-0.252,0.136-0.623,0.247-1.076c0.222-0.912,0.548-2.225,1.004-3.764c0.45-1.545,1.022-3.322,1.605-5.26
	c0.258-0.848,0.52-1.729,0.777-2.629c1.062-1.406,2.194-2.764,3.266-4.303c0.536-0.795,1.031-1.529,1.566-2.248
	c0.528-0.715,1.073-1.387,1.642-2.006c0.567-0.615,1.155-1.178,1.768-1.686c0.154-0.119,0.312-0.252,0.462-0.361l0.498-0.367
	c0.315-0.225,0.643-0.447,0.977-0.664c1.328-0.857,2.722-1.553,4.136-2.242l2.146-1.004l0.392-0.181
	c-0.565,0.587-1.124,1.187-1.669,1.813c-0.43,0.494-0.854,1.002-1.268,1.527c-0.409,0.518-0.836,1.082-1.212,1.619
	c-0.722,1.004-1.374,2.1-1.988,3.213c-0.226,0.219-0.453,0.432-0.676,0.654c-0.471,0.471-0.934,0.949-1.393,1.441
	c-0.46,0.49-0.907,0.998-1.352,1.506l-1.332,1.52c-0.447,0.5-0.882,1.023-1.34,1.504c-0.002,0.002-0.004,0.006-0.006,0.006
	c-0.119,0.133-0.14,0.375-0.045,0.543c0.095,0.166,0.268,0.195,0.388,0.063c0.446-0.496,0.921-0.951,1.38-1.43l1.388-1.416
	c0.461-0.473,0.92-0.939,1.391-1.385c0.029-0.028,0.061-0.055,0.091-0.083c-0.199,0.411-0.4,0.819-0.596,1.233l-1.782,3.873
	c-0.32,0.695-0.543,1.367-0.82,2.021c-0.272,0.65-0.541,1.303-0.886,1.838c-0.112,0.174-0.103,0.441,0.021,0.598
	c0.123,0.158,0.314,0.145,0.427-0.029l0.005-0.006c0.391-0.604,0.704-1.262,1.003-1.916c0.302-0.646,0.567-1.354,0.863-1.928
	l1.896-3.75c0.728-1.398,1.475-2.772,2.268-4.076c1.59-1.328,3.229-2.531,4.909-3.6c1.026-0.66,2.067-1.283,3.119-1.857
	c1.051-0.58,2.118-1.104,3.187-1.605c0.534-0.25,1.07-0.494,1.609-0.719c0.271-0.121,0.527-0.213,0.773-0.293l0.536-0.157
	c1.368,0.21,2.698,0.545,4.154,0.28c0.94-0.17,1.724-0.988,2.737-0.809c0.051,0.009,0.115,0.024,0.171,0.035
	c-0.511,0.193-0.995,0.379-1.438,0.545c-0.422,0.158-0.81,0.303-1.151,0.432c-0.352,0.129-0.634,0.238-0.879,0.297
	c-0.245,0.061-0.449,0.092-0.59,0.117c-0.14,0.025-0.214,0.039-0.214,0.039c-0.07,0.014-0.123,0.08-0.118,0.156
	c0.006,0.084,0.074,0.146,0.154,0.141c0,0,0.075-0.004,0.215-0.012c0.141-0.008,0.349-0.012,0.622-0.043
	c0.274-0.027,0.604-0.113,0.954-0.203c0.355-0.09,0.761-0.193,1.197-0.314c0.801-0.224,1.729-0.492,2.708-0.778
	c0.385,0.125,0.75,0.266,1.01,0.427c0.146,0.092,0.23,0.252,0.321,0.408c-3.364,0.817-6.575,2.064-9.021,2.926
	c-0.647,0.229-1.242,0.441-1.77,0.629c-0.538,0.186-0.973,0.344-1.344,0.41c-0.372,0.068-0.681,0.09-0.891,0.113
	c-0.211,0.021-0.322,0.033-0.322,0.033c-0.106,0.014-0.193,0.135-0.197,0.289c-0.005,0.166,0.039-0.025,0.157-0.02
	c0,0,0.11,0.008,0.319,0.021c0.208,0.014,0.519,0.045,0.927,0.041c0.409,0.002,0.909-0.1,1.44-0.207
	c0.54-0.109,1.155-0.232,1.818-0.387c1.327-0.305,2.872-0.684,4.517-1.09c1.648-0.387,3.398-0.799,5.149-1.078
	c0.435-0.072,0.883-0.129,1.304-0.182c0.455-0.051,0.862-0.096,1.294-0.119c0.86-0.057,1.716-0.07,2.555-0.086
	c1.678-0.014,12.102-2.305,13.49-2.588c0.706-0.137,1.316-0.314,1.834-0.438c0.522-0.127,0.961-0.209,1.321-0.252
	c0.108-0.015,0.195-0.02,0.291-0.027c0.592,1.146,1.352,3.607,1.674,4.133c0.268,0.439,0.646,1.344,1.181,1.484
	c0.317-0.65,0.552-2.189,1.223-2.566c0.749,0.334,1.468,1.775,2.067,0.367c0.613,0.369,0.579,0.836,1.271,1.016
	c0.278,0.072,0.487-0.078,0.782,0.031c0.48,0.18,0.768,0.762,1.24,1.008c0.561-0.59,0.058-1.994-0.16-2.67
	c1.297,0.742,1.91,2.643,3.076,3.623c0.908,0.764,1.5,1.072,2.055,2.09c0.596-0.793,1.219-1.805,1.531-2.791
	c0.281-0.885,0.813-2.354,0.571-3.26c1.015,1.119,1.741,2.145,2.46,3.467c0.295,0.543,0.596,2.063,1.182,2.129
	c0.385-1.227,0.386-2.35,0.33-3.629c0.036,0.738,0.312,1.639,0.649,2.293c0.372,0.719,0.981,1.195,1.026,2.047
	c0.716,0.09,1.01-0.979,1.84-0.891c0.27-0.994,0.009-2.266-0.026-3.291c0.438,1.295,0.229,2.826,0.997,3.982
	c0.485,0.73,1.19,1.301,1.716,2.008c-2.059,0.059,3.247,0.865,2.796,2.123c-1.156-0.006-0.685,2.025-0.675,2.783
	c0.009,0.652,0.005,1.309,0.024,1.961c0.032,1.08,0.056,0.869-0.563,1.508c-1.031,1.064-0.219,2.516-0.608,3.748
	c-0.132,0.414,1.2,1.293,1.039,1.705c-0.341,0.865-0.235,1.807-0.537,2.645c-0.177,0.488-0.446,1.033-0.661,1.508
	c-0.211,0.465-0.636,0.666-0.807,1.072c-0.278,0.666,0.008,2.326,0.063,3.068c0.046,0.592,0.154,0.701,0.416,1.268
	c0.549,1.188,0.547,2.623,1.305,3.705c0.791,1.127-0.531,2.045,0.488,3.043c0.662,0.65,0.228,4.086,0.62,4.934
	c0.521,1.123,0.786,2.074,1.599,3.041c0.823,0.979,0.813,1.758,0.822,3.029c0.017,1.773,0.695,0.209,1.013,1.953
	c0.299,1.646,0.077,3.232,0.631,4.857c0.122,0.357-0.048,0.898-0.317,1.5c0.161,0.676,0.301,1.355,0.415,2.035
	c0.145,0.859,0.209,1.752,0.213,2.656c0.388,0.189,0.693,0.387,0.743,0.59c0.034,0.145,0.057,0.236,0.122,0.369
	c0.039,0.084,0.147,0.394,0.264,0.578c-0.162,0.008-0.42,0.076-0.708,0.168c0.21,0.057,0.418,0.123,0.611,0.221
	c0.163,0.082,0.325,0.178,0.45,0.309c0.104,0.109,0.153,0.285,0.277,0.371c0.082-0.213,0.115-0.441,0.162-0.662
	c0.012-0.059,0.028-0.117,0.04-0.176c0.004-0.021,0.002-0.092,0.013-0.109c0.027-0.043,0.146-0.09,0.198-0.1
	c0.176-0.033,0.375,0.09,0.552,0.027c0.003-0.057-0.008-0.133,0.041-0.178c0.042-0.039,0.125-0.053,0.174-0.092
	c0.09-0.068,0.129-0.123,0.142-0.234c0.014-0.127,0.045-0.193,0.102-0.309c0.059-0.113,0.118-0.213,0.182-0.322
	c0.063-0.109,0.033-0.16,0.051-0.293c0.033-0.254,0.158-0.559,0.427-0.631c0.077,0.084,0.109,0.145,0.225,0.129
	c0.06-0.01,0.086-0.027,0.153-0.021c0.118,0.012,0.24,0.051,0.359,0.039c0.063-0.004,0.127-0.033,0.189-0.037
	c0.325-0.02,0.647,0.086,0.978,0.051c0.168-0.328,0.024-0.684-0.046-1.008c-0.045-0.205,1.604,0.309,1.591,0.098
	c-0.015-0.182-1.305-0.359-1.312-0.543c-0.001-0.037-0.003-0.072-0.008-0.109c-0.007-0.057-0.021-0.111-0.04-0.168
	c-0.043-0.117-0.092-0.225-0.118-0.35c-0.026-0.133-0.057-0.266-0.09-0.398c-0.021-0.08-0.076-0.248,0.003-0.313
	c0.001,0.039,0.02,0.063,0.053,0.076c0.027-0.045,0.053-0.094,0.07-0.145c0.205,0.129,1.593,0.492,1.848,0.555
	c-0.001-0.209,0.058-0.404,0.12-0.602c0.06-0.021,0.09,0.113,0.12,0.15c0.116-0.023,0.122-0.299,0.123-0.365
	c0.005-0.361-0.058-0.705-0.114-1.059c-0.053-0.307-0.049-0.615-0.152-0.91c0.043,0.158,0.138,0.309,0.214,0.451
	c0.153,0.287,0.32,0.557,0.52,0.814c0.108-0.018,0.041-0.381,0.037-0.436c0.091-0.037,0.142,0.023,0.153,0.178
	c0.052,0.117,0.137,0.188,0.253,0.213c0.105-0.1,0.13-0.217,0.189-0.348c0.037,0.039-0.003,0.09,0.019,0.141
	c0.024,0.059,0.123,0.154,0.152,0.203c0.063,0.107,0.118,0.219,0.201,0.314c0.086,0.1,0.199,0.174,0.275,0.283
	c0.069,0.1,0.099,0.324,0.25,0.143c0.149-0.176,0.187-0.471,0.237-0.686c0.031-0.129,0.053-0.258,0.078-0.387
	c0.164-0.008-0.002-0.568,0.101-0.469c0.159,0.154-0.313-1.189-0.098-1.15c0.17,0.029,0.291,0.066,0.434,0.164
	c0.067,0.047,0.122,0.086,0.2,0.109c0.05,0.016,0.097,0.006,0.135,0.047c0.019-0.088,0.021-0.178,0.007-0.266
	c0.005-0.289,0.003-0.578-0.009-0.865c-0.017-0.188-0.068-0.346-0.077-0.529c0-0.105-0.014-0.211-0.039-0.314
	c-0.032-0.057-0.032-0.111,0.003-0.162c0.05-0.139,0.059-0.281,0.027-0.428c-0.023-0.129-0.06-0.256-0.104-0.379
	c0.168,0.025,0.25,0.213,0.435,0.225c0.021-0.268-0.131-0.506-0.235-0.74c-0.107-0.246-0.145-0.541-0.178-0.809
	c-0.025-0.217-0.025-0.432-0.063-0.648c-0.056-0.324-0.106-0.648-0.155-0.975c-0.115-0.758,0.773-1.52,0.653-2.277
	c-0.24-1.523-0.181-0.219-0.201-1.766c-0.019-1.314-1.022-1.123-0.635-2.381c0.457-0.111,0.099-0.115,0.419,0.268
	c0.812-1.477,0.141-2.359-0.372-3.654c-0.076-0.551,0.018-1.084-0.029-1.639c-0.208-0.65-0.429-1.297-0.663-1.939
	c-0.187-0.824-0.276-2.066-0.06-2.887c0.503,0.43,0.89,1.053,1.203,1.627c-0.033-1.303-0.54-2.359-0.162-3.586
	c0.135-0.443,0.245-0.742,0.428-1.15c0.277-0.078,0.397-0.248,0.362-0.51c0.085-0.502,0.082-1.01-0.012-1.521
	c0.028-1.297,0.752-2.396,0.762-3.764c0.003-0.588,0.053-1.156,0.133-1.725c-1.6-0.217,0.058-0.688-1.106-1.518
	c-0.15,0.006-0.647,0.016-0.434-0.039c0.31-0.744-0.469-1.41,0.251-1.945c0.352-0.266,0.561-0.668,0.967-0.037
	c0.341-0.879-1.604-3.834-0.716-4.279c0.536,0.336,0.593,0.941,1.131,1.236c0.053-0.721-0.011-1.426,0.016-2.143
	c0.051-1.305,0.135-0.469,0.377-1.137c0.279-0.768,0.363-1.281,0.35-2.127C213.005,79.471,211.896,78.551,211.693,77.482z
	 M115.433,68.643l-0.501,0.396c-0.184,0.141-0.349,0.289-0.522,0.436c-0.684,0.598-1.337,1.262-1.942,1.994
	c-0.606,0.725-1.177,1.498-1.714,2.295c-0.536,0.787-1.056,1.633-1.537,2.412c-0.23,0.375-0.485,0.739-0.729,1.107
	c0.465-1.616,0.968-3.184,1.522-4.613c0.192-0.502,0.395-0.989,0.597-1.459c0.396-0.044,0.793-0.104,1.183-0.195
	c0.761-0.371,1.46-0.828,2.104-1.371c0.467-0.303,0.907-0.563,1.347-0.904c0.255-0.198,0.508-0.36,0.761-0.509
	C115.809,68.367,115.622,68.497,115.433,68.643z M123.513,64.073c0.564-0.438,1.163-0.815,1.818-0.801
	c-0.053,0.021-0.104,0.04-0.157,0.06c-0.376,0.148-0.763,0.314-1.136,0.49L123.513,64.073z M131.981,65.566
	c-0.311,0.113-0.605,0.236-0.877,0.367c-0.553,0.252-1.102,0.523-1.646,0.801c-1.09,0.563-2.159,1.193-3.218,1.854
	c-1.059,0.664-2.101,1.369-3.127,2.123c-0.386,0.285-0.766,0.585-1.146,0.885c0.394-0.455,0.796-0.899,1.204-1.328
	c0.859-0.904,1.75-1.76,2.658-2.578c0.681-0.613,1.38-1.189,2.079-1.768c0.192,0.331,0.403,0.632,0.668,0.852
	c0.521,0.431,2.896-1.66,3.408-1.209C131.985,65.565,131.983,65.565,131.981,65.566z M153.898,66.99
	c0.125-0.246,0.239-0.501,0.394-0.751c0.3-0.486,0.751-1.127,1.3-1.361c0.49-0.209,1.036-0.465,1.564-0.551
	c0.612-0.1,1.243,0.006,1.86-0.033c0.588-0.039,1.142-0.223,1.733-0.234c0.535-0.012,1.009,0.012,1.525,0.129
	c0.158,0.035,0.312,0.018,0.47,0.035c0.158,0.016,0.305,0.08,0.45,0.146c0.119,0.055,0.225,0.125,0.335,0.189
	C162.207,64.896,156.051,66.462,153.898,66.99z"/>
</svg>
