<?xml version="1.0" encoding="UTF-8" standalone="no"?>
<svg
   xmlns:dc="http://purl.org/dc/elements/1.1/"
   xmlns:cc="http://creativecommons.org/ns#"
   xmlns:rdf="http://www.w3.org/1999/02/22-rdf-syntax-ns#"
   xmlns:svg="http://www.w3.org/2000/svg"
   xmlns="http://www.w3.org/2000/svg"
   xmlns:sodipodi="http://sodipodi.sourceforge.net/DTD/sodipodi-0.dtd"
   xmlns:inkscape="http://www.inkscape.org/namespaces/inkscape"
   height="160"
   viewBox="0 0 160 160"
   width="160"
   version="1.1"
   id="svg3690"
   sodipodi:docname="profile-offcenter-from inkscape.svg"
   inkscape:version="0.92.0 r15299">
  <metadata
     id="metadata3696">
    <rdf:RDF>
      <cc:Work
         rdf:about="">
        <dc:format>image/svg+xml</dc:format>
        <dc:type
           rdf:resource="http://purl.org/dc/dcmitype/StillImage" />
        <dc:title />
      </cc:Work>
    </rdf:RDF>
  </metadata>
  <defs
     id="defs3694" />
  <sodipodi:namedview
     pagecolor="#ffffff"
     bordercolor="#666666"
     borderopacity="1"
     objecttolerance="10"
     gridtolerance="10"
     guidetolerance="10"
     inkscape:pageopacity="0"
     inkscape:pageshadow="2"
     inkscape:window-width="1920"
     inkscape:window-height="1001"
     id="namedview3692"
     showgrid="false"
     inkscape:zoom="2.525"
     inkscape:cx="9.6869089"
     inkscape:cy="61.213105"
     inkscape:window-x="-9"
     inkscape:window-y="-9"
     inkscape:window-maximized="1"
     inkscape:current-layer="svg3690" />
  <path
     style="fill:#f1f1f1;fill-rule:evenodd;stroke-width:0.92707592"
     inkscape:connector-curvature="0"
     id="path3680"
     d="M 0.0693071,0 H 159.93069 V 160 H 0.0693071 Z" />
  <g
     style="opacity:0.23999999;fill:#000000;fill-rule:evenodd"
     id="g3686"
     transform="translate(34,26)">
    <path
       inkscape:connector-curvature="0"
       id="path3682"
       d="m 71.22405,24.8615 c 0,13.703667 -11.068162,32.617667 -24.72405,32.617667 -13.655887,0 -24.725212,-18.912834 -24.725212,-32.617667 0,-13.704833 11.069325,-24.81383333 24.725212,-24.81383333 13.655888,0 24.72405,11.11016633 24.72405,24.81383333 z" />
    <path
       inkscape:connector-curvature="0"
       id="path3684"
       d="M 65.191838,50.704333 C 60.202388,57.136167 53.663325,61.682667 46.5,61.682667 c -7.164487,0 -13.702387,-4.5465 -18.691837,-10.978334 C 11.8575,57.2435 0.73935,70.860833 0.73935,80.139333 c 0,12.598834 20.4879,22.812997 45.76065,22.812997 25.27275,0 45.76065,-10.212997 45.76065,-22.812997 0,-9.2785 -11.116987,-22.897 -27.068812,-29.435 z" />
  </g>
</svg>
