<?xml version="1.0" encoding="UTF-8"?>
<svg width="130px" height="125px" viewBox="0 0 130 125" version="1.1" xmlns="http://www.w3.org/2000/svg" xmlns:xlink="http://www.w3.org/1999/xlink">
    <!-- Generator: Sketch 41.2 (35397) - http://www.bohemiancoding.com/sketch -->
    <title>noun_129886_cc</title>
    <desc>Created with Sketch.</desc>
    <defs></defs>
    <g id="Page-1" stroke="none" stroke-width="1" fill="none" fill-rule="evenodd">
        <g id="Club99love-home-4" transform="translate(-961.000000, -989.000000)">
            <g id="noun_129886_cc" transform="translate(964.000000, 989.000000)">
                <path d="M103.23,64.2420569 L67.1756522,40.0191127 C64.2993913,38.0899945 59.6035652,38.1061378 56.7353913,40.0433276 L20.7565217,64.4169421" id="Shape" stroke="#999999" stroke-width="6"></path>
                <g id="Group" transform="translate(0.000000, 63.345271)" stroke="#C12036" stroke-width="6">
                    <rect id="Rectangle-path" x="0" y="0.574939962" width="124" height="57.3892479"></rect>
                    <g transform="translate(14.705984, 0.000000)" id="Shape">
                        <path d="M0,0.574939962 L0,57.9641879"></path>
                        <path d="M15,0.574939962 L15,57.9641879"></path>
                        <path d="M30,0.574939962 L30,57.9641879"></path>
                        <path d="M46,0.574939962 L46,57.9641879"></path>
                        <path d="M62,0.574939962 L62,57.9641879"></path>
                        <path d="M77,0.574939962 L77,57.9641879"></path>
                        <path d="M93,0.574939962 L93,57.9641879"></path>
                    </g>
                </g>
                <path d="M61,24.6372876 L61,38.5877447" id="Shape" stroke="#999999" stroke-width="7"></path>
                <path d="M71.6881739,18.0185557 C71.6881739,23.4238534 67.2969565,27.8094359 61.8786957,27.8094359 C56.4604348,27.8094359 52.0692174,23.4238534 52.0692174,18.0185557 L52.0692174,0" id="Shape" stroke="#C12036" stroke-width="7"></path>
            </g>
        </g>
    </g>
</svg>